<svg t="1667463340783" class="icon" viewBox="0 0 1024 1024" version="1.1" xmlns="http://www.w3.org/2000/svg" p-id="7308" width="200" height="200"><path d="M512 421.490332 331.092592 240.582924C306.351217 215.841549 265.464551 215.477441 240.470996 240.470996 215.303191 265.638801 215.527553 306.037221 240.582924 331.092592L421.490332 512 240.582925 692.907407C215.84155 717.648782 215.477441 758.535449 240.470996 783.529004 265.638801 808.696809 306.037222 808.472446 331.092593 783.417075L512 602.509668 692.907407 783.417075C717.648782 808.15845 758.535449 808.522559 783.529004 783.529004 808.696809 758.361199 808.472446 717.962778 783.417075 692.907407L602.509668 512 783.417076 331.092592C808.158451 306.351217 808.522559 265.464551 783.529004 240.470996 758.361199 215.303191 717.962779 215.527553 692.907408 240.582924L512 421.490332Z" p-id="7309" fill="#d81e06"></path></svg>