<svg t="1667585395019" class="icon" viewBox="0 0 1024 1024" version="1.1" xmlns="http://www.w3.org/2000/svg" p-id="13548" width="200" height="200"><path d="M628 79.27c-239-64-484.65 77.79-548.68 316.78s77.74 484.65 316.73 548.68S880.7 866.94 944.73 628 866.94 143.3 628 79.27zM512 208a36 36 0 1 1-36 36 36 36 0 0 1 36-36z m66.87 193.54l-90.2 336.63a90.24 90.24 0 0 0 62.92-41.34 11.15 11.15 0 0 1 20.41 8.41l-6.44 24a108 108 0 0 1-132.27 76.37 36 36 0 0 1-25.45-44.09l90.2-336.63a90.28 90.28 0 0 0-62.92 41.34 11.15 11.15 0 0 1-20.44-8.41l6.44-24a108 108 0 0 1 132.27-76.37 36 36 0 0 1 25.48 44.09z" p-id="13549" fill="#1296db"></path></svg>