<svg t="1656140509496" class="icon" viewBox="0 0 1024 1024" version="1.1" xmlns="http://www.w3.org/2000/svg" p-id="3065" width="200" height="200"><path d="M515.474327 405.338159h274.471839c12.739199 0 23.162181 10.422981 23.162181 23.16218l-34.743271 556.123954c0 12.739199-10.422981 23.162181-23.162181 23.162181H515.474327" fill="#D6D6D6" p-id="3066"></path><path d="M524.970821 335.851617H882.594888c12.739199 0 23.162181 10.422981 23.162181 23.162181v23.16218c0 12.739199-10.422981 23.162181-23.162181 23.162181H524.970821" fill="#FF8F43" p-id="3067"></path><path d="M511.189324 335.851617H824.689437c0-134.919701-98.091834-230.92694-312.689437-230.926939" fill="#FFD527" p-id="3068"></path><path d="M694.402171 1007.786474h-364.804342c-9.612305 0-17.371635-10.422981-17.371636-23.162181L286.16874 428.500339c0-12.739199 7.875141-23.162181 17.371635-23.16218h416.91925c9.612305 0 17.371635 10.422981 17.371635 23.16218l-26.057453 556.123954c0 12.739199-7.75933 23.162181-17.371636 23.162181z" fill="#FFFFFF" p-id="3069"></path><path d="M755.202895 1024H268.797105c-21.540828 0-39.028274-17.371635-39.375707-38.796652L194.678127 429.542637v-1.042298c0-21.656639 17.719068-39.375707 39.375707-39.375707h555.892332c21.656639 0 39.375707 17.719068 39.375707 39.375707v1.042298l-34.743271 555.660711c-0.347433 21.425017-17.834879 38.796652-39.375707 38.796652zM227.10518 428.152907l34.743271 555.544899v1.042298c0 3.82176 3.126894 6.948654 6.948654 6.948654h486.40579c3.82176 0 6.948654-3.126894 6.948654-6.948654v-1.042298l34.743271-555.544899c-0.231622-3.590138-3.242705-6.601221-6.948654-6.601222H234.053834c-3.590138 0-6.717032 3.011083-6.948654 6.601222z" fill="" p-id="3070"></path><path d="M522.075549 560.408957c40.649627 16.329337 77.709116 32.542864 121.022393 34.974893 91.374802 5.211491 157.271206-9.264872 157.271205-9.264872l-22.004071 398.505315c0 12.739199-10.422981 23.162181-23.162181 23.162181H522.075549" fill="#FFCFAE" p-id="3071"></path><path d="M701.582447 1007.786474H322.533363c-9.959738 0-18.066501-10.422981-18.0665-23.162181L287.211038 586.003167c0-12.739199 7.064465-61.958833 106.777652-61.958833s149.048632 66.128025 220.272337 71.339516 122.527935-9.264872 122.527935-9.264872l-17.255825 398.621126c0 12.623388-8.106763 23.04637-17.95069 23.04637z" fill="#FFEADC" p-id="3072"></path><path d="M755.202895 1024H268.797105c-21.540828 0-39.144085-17.371635-39.375707-38.912463L207.301515 586.929654v-0.926487c0-8.454196 2.663651-30.226646 26.86813-48.640579 25.71002-19.572043 68.212622-29.53178 126.233884-29.53178 58.831938 0 103.99819 13.665686 136.888486 25.594209 8.454196 3.011083 12.739199 12.391767 9.728116 20.730152-3.011083 8.454196-12.391767 12.739199-20.730151 9.728115-30.342456-11.002036-72.034381-23.625424-125.77064-23.625424-94.617507 0-120.327528 28.373671-120.790772 45.397874L261.848451 983.813617v0.926487c0 3.82176 3.126894 6.948654 6.948654 6.948654h486.40579c3.82176 0 6.948654-3.126894 6.948654-6.948654v-1.042298l24.436101-398.621127c0.579055-8.917439 8.222574-15.750283 17.140013-15.171228 8.917439 0.579055 15.750283 8.222574 15.171229 17.140014l-24.32029 398.157883c-0.231622 21.425017-17.834879 38.796652-39.375707 38.796652z" fill="" p-id="3073"></path><path d="M824.689437 405.338159H199.310563c-12.739199 0-23.162181-10.422981-23.16218-23.162181v-23.16218c0-12.739199 10.422981-23.162181 23.16218-23.162181h625.378874c12.739199 0 23.162181 10.422981 23.16218 23.162181v23.16218c0 12.739199-10.422981 23.162181-23.16218 23.162181z" fill="#FFA96E" p-id="3074"></path><path d="M882.594888 421.551685H141.405112c-21.656639 0-39.375707-17.719068-39.375707-39.375707v-23.16218c0-21.656639 17.719068-39.375707 39.375707-39.375707h741.189776c21.656639 0 39.375707 17.719068 39.375707 39.375707v23.16218c0 21.77245-17.719068 39.375707-39.375707 39.375707zM141.405112 352.065144c-3.82176 0-6.948654 3.126894-6.948654 6.948654v23.16218c0 3.82176 3.126894 6.948654 6.948654 6.948654h741.189776c3.82176 0 6.948654-3.126894 6.948654-6.948654v-23.16218c0-3.82176-3.126894-6.948654-6.948654-6.948654H141.405112zM511.652567 32.427053H362.488125c-8.917439 0-16.213526-7.296087-16.213526-16.213527s7.296087-16.213526 16.213526-16.213526h149.164442c8.917439 0 16.213526 7.296087 16.213527 16.213526s-7.180276 16.213526-16.213527 16.213527z" fill="" p-id="3075"></path><path d="M512 192.246098c-8.917439 0-16.213526-7.296087-16.213526-16.213526V16.445148c0-8.917439 7.296087-16.213526 16.213526-16.213526s16.213526 7.296087 16.213526 16.213526V176.032572c0 9.03325-7.296087 16.213526-16.213526 16.213526z" fill="" p-id="3076"></path><path d="M650.046596 494.396743h158.197693l-8.106764 138.046596H650.046596" fill="#FC3838" p-id="3077"></path><path d="M690.696223 632.443339H507.946618c-7.064465 0-12.739199-9.149061-12.739199-20.266908v-97.396969c0-11.117847 5.790545-20.266908 12.739199-20.266908h187.845284l-5.095679 137.930785z" fill="#FFFFFF" p-id="3078"></path><path d="M733.198824 632.443339H557.861117c-6.717032 0-12.275956-9.149061-12.275955-20.266908v-97.396969c0-11.117847 5.558923-20.266908 12.275955-20.266908h180.201765L733.198824 632.443339z" fill="#FF7171" p-id="3079"></path><path d="M800.137525 648.656865H511.884189c-20.035286 0-36.364623-16.329337-36.364623-36.480434v-97.396969c0-20.151097 16.329337-36.480434 36.364623-36.480435h296.244289c4.516625 0 8.685818 1.852974 11.812712 5.09568 3.011083 3.242705 4.632436 7.64352 4.400814 12.044334L816.351052 633.485637c-0.463244 8.454196-7.64352 15.171228-16.213527 15.171228zM511.884189 510.610269c-2.084596 0-3.937571 1.852974-3.937571 4.053382v97.396969c0 2.200407 1.737164 4.053382 3.937571 4.053381h272.966297l6.137978-105.619543h-279.104275z" fill="" p-id="3080"></path><path d="M326.818367 875.877856c30.342456 0 55.010179 24.667722 55.010179 55.010178s-24.667722 55.010179-55.010179 55.010179M315.584709 654.215788c30.342456 0 55.010179 24.667722 55.010179 55.010179s-24.667722 55.010179-55.010179 55.010179M699.150418 757.171681c30.342456 0 55.010179 25.825831 55.010179 56.168287s-24.667722 55.010179-55.010179 55.010179M389.703687 750.454648c30.342456 0 55.010179 24.667722 55.010179 55.010179S420.046143 860.475006 389.703687 860.475006M528.560959 749.180728c30.342456 0 55.010179 24.667722 55.010179 55.010179s-24.667722 55.010179-55.010179 55.010179M696.71839 875.877856c30.342456 0 55.010179 24.667722 55.010178 55.010178s-24.667722 55.010179-55.010178 55.010179M569.558019 875.877856c30.342456 0 55.010179 24.667722 55.010178 55.010178s-24.667722 55.010179-55.010178 55.010179M453.978738 878.194074c30.342456 0 55.010179 24.667722 55.010179 55.010178s-24.667722 55.010179-55.010179 55.010179" fill="#7C5F5B" p-id="3081"></path><path d="M300.760914 931.003845a43.429088 26.057453 90 1 0 52.114906 0 43.429088 26.057453 90 1 0-52.114906 0Z" fill="#9B7873" p-id="3082"></path><path d="M326.818367 998.753223c-37.406922 0-67.749378-30.458267-67.749378-67.749378s30.458267-67.749378 67.749378-67.749378 67.749378 30.458267 67.749378 67.749378-30.342456 67.749378-67.749378 67.749378z m0-110.136168c-23.277991 0-42.270979 18.992988-42.27098 42.270979s18.992988 42.270979 42.27098 42.27098 42.270979-18.992988 42.270979-42.27098-18.877177-42.270979-42.270979-42.270979z" fill="" p-id="3083"></path><path d="M283.736711 710.384076a43.429088 26.057453 90 1 0 52.114906 0 43.429088 26.057453 90 1 0-52.114906 0Z" fill="#9B7873" p-id="3084"></path><path d="M309.794164 778.133454c-37.406922 0-67.749378-30.458267-67.749378-67.749378s30.458267-67.749378 67.749378-67.749378 67.749378 30.458267 67.749378 67.749378-30.342456 67.749378-67.749378 67.749378z m0-110.020357c-23.277991 0-42.270979 18.992988-42.270979 42.270979s18.992988 42.270979 42.270979 42.270979 42.270979-18.992988 42.27098-42.270979-18.877177-42.270979-42.27098-42.270979z" fill="" p-id="3085"></path><path d="M725.207872 813.224157c0 23.741235-11.696901 42.965845-26.057454 42.965845s-26.057453-19.22461-26.057453-42.965845 11.696901-43.892332 26.057453-43.892332 26.057453 20.151097 26.057454 43.892332z" fill="#9B7873" p-id="3086"></path><path d="M699.150418 881.089346c-37.406922 0-67.749378-30.458267-67.749378-67.749378 0-18.066501 6.948654-35.322325 19.687854-48.408957 12.85501-13.202443 29.995024-20.614341 48.061524-20.614341s35.206514 7.296087 48.061525 20.614341c12.739199 13.086632 19.687853 30.226646 19.687853 48.408957 0 37.406922-30.458267 67.749378-67.749378 67.749378z m0-111.178466c-22.930559 0-42.270979 19.919475-42.270979 43.429088 0 23.277991 18.992988 42.270979 42.270979 42.27098s42.270979-18.992988 42.27098-42.27098c0-23.509613-19.340421-43.429088-42.27098-43.429088z" fill="" p-id="3087"></path><path d="M499.839855 804.190907a43.429088 26.057453 90 1 0 52.114906 0 43.429088 26.057453 90 1 0-52.114906 0Z" fill="#9B7873" p-id="3088"></path><path d="M525.897308 871.940285c-37.406922 0-67.749378-30.458267-67.749378-67.749378s30.458267-67.749378 67.749378-67.749378 67.749378 30.458267 67.749378 67.749378-30.342456 67.749378-67.749378 67.749378z m0-110.020357c-23.277991 0-42.270979 18.992988-42.270979 42.270979s18.992988 42.270979 42.270979 42.270979 42.270979-18.992988 42.27098-42.270979-18.992988-42.270979-42.27098-42.270979z" fill="" p-id="3089"></path><path d="M364.804343 818.204026a43.429088 26.057453 90 1 0 52.114906 0 43.429088 26.057453 90 1 0-52.114906 0Z" fill="#9B7873" p-id="3090"></path><path d="M390.861796 885.953404c-37.406922 0-67.749378-30.458267-67.749378-67.749378s30.458267-67.749378 67.749378-67.749378 67.749378 30.458267 67.749378 67.749378-30.342456 67.749378-67.749378 67.749378z m0-110.020357c-23.277991 0-42.270979 18.992988-42.270979 42.270979s18.992988 42.270979 42.270979 42.27098 42.270979-18.992988 42.270979-42.27098-18.877177-42.270979-42.270979-42.270979z" fill="" p-id="3091"></path><path d="M670.660936 931.003845a43.429088 26.057453 90 1 0 52.114907 0 43.429088 26.057453 90 1 0-52.114907 0Z" fill="#9B7873" p-id="3092"></path><path d="M696.71839 998.753223c-37.406922 0-67.749378-30.458267-67.749378-67.749378s30.458267-67.749378 67.749378-67.749378 67.749378 30.458267 67.749377 67.749378-30.342456 67.749378-67.749377 67.749378z m0-110.136168c-23.277991 0-42.270979 18.992988-42.27098 42.270979s18.992988 42.270979 42.27098 42.27098S738.989369 954.281837 738.989369 931.003845s-18.992988-42.38679-42.270979-42.38679z" fill="" p-id="3093"></path><path d="M543.500565 931.003845a43.429088 26.057453 90 1 0 52.114907 0 43.429088 26.057453 90 1 0-52.114907 0Z" fill="#9B7873" p-id="3094"></path><path d="M569.558019 998.753223c-37.406922 0-67.749378-30.458267-67.749378-67.749378s30.458267-67.749378 67.749378-67.749378 67.749378 30.458267 67.749378 67.749378-30.342456 67.749378-67.749378 67.749378z m0-110.136168c-23.277991 0-42.270979 18.992988-42.27098 42.270979s18.992988 42.270979 42.27098 42.27098 42.270979-18.992988 42.270979-42.27098-18.992988-42.270979-42.270979-42.270979z" fill="" p-id="3095"></path><path d="M427.921285 931.003845a43.429088 26.057453 90 1 0 52.114906 0 43.429088 26.057453 90 1 0-52.114906 0Z" fill="#9B7873" p-id="3096"></path><path d="M453.978738 998.753223c-37.406922 0-67.749378-30.458267-67.749378-67.749378s30.458267-67.749378 67.749378-67.749378 67.749378 30.458267 67.749378 67.749378-30.342456 67.749378-67.749378 67.749378z m0-110.136168c-23.277991 0-42.270979 18.992988-42.27098 42.270979s18.992988 42.270979 42.27098 42.27098 42.270979-18.992988 42.270979-42.27098-18.992988-42.270979-42.270979-42.270979z" fill="" p-id="3097"></path><path d="M755.202895 335.851617c0-134.919701-76.319385-230.92694-243.202895-230.926939-166.7677 0-243.202895 96.007238-243.202895 230.926939h486.40579z" fill="#FFE471" p-id="3098"></path><path d="M824.689437 352.065144H199.310563c-8.917439 0-16.213526-7.296087-16.213526-16.213527 0-74.234789 28.373671-136.07781 82.10993-178.812033 57.094775-45.397874 140.131192-68.444243 246.793033-68.444244 106.777652 0 189.92988 23.04637 246.908844 68.444244C812.529292 199.773807 840.902963 261.616829 840.902963 335.851617c0 8.917439-7.296087 16.213526-16.213526 16.213527zM215.987333 319.638091h591.909523c-3.590138-57.326397-26.868129-103.419136-69.25492-137.23592-51.188419-40.765438-127.391993-61.379778-226.757747-61.379778-99.249943 0-175.453517 20.614341-226.641936 61.379778-42.270979 33.816784-65.548971 79.909523-69.25492 137.23592z" fill="" p-id="3099"></path></svg>