<svg t="1656188195056" class="icon" viewBox="0 0 1024 1024" version="1.1" xmlns="http://www.w3.org/2000/svg" p-id="2759" width="200" height="200"><path d="M239.589744 410.25641c-2.625641 0-4.594872 0-7.220513 0.656411-19.692308 3.938462-32.164103 22.974359-28.225641 42.666666l105.682051 518.564103c3.282051 17.066667 18.379487 28.882051 35.446154 28.882051H685.948718c17.066667 0 32.164103-11.815385 35.446154-28.882051l105.682051-518.564103c0.65641-2.625641 0.65641-4.594872 0.65641-7.220513 0-19.692308-16.410256-36.102564-36.102564-36.102564H239.589744z" fill="#E9B7D4" p-id="2760"></path><path d="M685.948718 1017.435897H345.271795c-24.94359 0-46.605128-17.723077-51.2-42.010256l-105.682051-518.564103c-5.907692-28.225641 12.471795-56.451282 40.697435-61.702564 3.282051-0.65641 7.220513-1.312821 10.502565-1.31282h551.384615c13.784615 0 26.912821 5.251282 37.415385 15.097436 9.846154 9.846154 15.097436 22.974359 15.097435 37.415384 0 3.282051-0.65641 7.220513-1.31282 10.502564l-105.682051 518.564103c-3.938462 24.287179-25.6 42.010256-50.54359 42.010256zM239.589744 426.666667c-1.312821 0-2.625641 0-3.938462 0.65641-5.251282 1.312821-9.846154 3.938462-12.471795 8.533333-2.625641 4.594872-3.938462 9.846154-2.625641 15.097436l105.682051 518.564103c1.969231 9.189744 9.846154 15.753846 19.035898 15.753846H685.948718c9.189744 0 17.723077-6.564103 19.035897-15.753846l105.682052-518.564103c0-1.312821 0.65641-2.625641 0.65641-3.938461 0-5.251282-1.969231-10.502564-5.907692-13.784616-3.938462-3.938462-8.533333-5.907692-13.784616-5.907692L239.589744 426.666667z" fill="#222222" p-id="2761"></path><path d="M492.964103 594.707692c-20.348718 0-36.758974-16.410256-36.758975-36.758974 0-7.220513 5.907692-13.128205 13.128205-13.128205s13.128205 5.907692 13.128205 13.128205c0 5.907692 4.594872 10.502564 10.502565 10.502564 5.907692 0 10.502564-4.594872 10.502564-10.502564 0-7.220513 5.907692-13.128205 13.128205-13.128205s13.128205 5.907692 13.128205 13.128205c0 20.348718-16.410256 36.758974-36.758974 36.758974z" fill="#343434" p-id="2762"></path><path d="M538.912821 594.707692c-20.348718 0-36.758974-16.410256-36.758975-36.758974 0-7.220513 5.907692-13.128205 13.128205-13.128205s13.128205 5.907692 13.128205 13.128205c0 5.907692 4.594872 10.502564 10.502565 10.502564 5.907692 0 10.502564-4.594872 10.502564-10.502564 0-7.220513 5.907692-13.128205 13.128205-13.128205s13.128205 5.907692 13.128205 13.128205c0 20.348718-16.410256 36.758974-36.758974 36.758974z" fill="#343434" p-id="2763"></path><path d="M657.723077 617.025641H607.179487c-7.220513 0-13.128205-5.907692-13.128205-13.128205s5.907692-13.128205 13.128205-13.128205h50.54359c7.220513 0 13.128205 5.907692 13.128205 13.128205s-5.907692 13.128205-13.128205 13.128205z" fill="#FF9596" p-id="2764"></path><path d="M654.441026 561.887179c-7.220513 0-13.128205-5.907692-13.128205-13.128205 0-5.907692-4.594872-10.502564-10.502565-10.502564s-10.502564 4.594872-10.502564 10.502564c0 7.220513-5.907692 13.128205-13.128205 13.128205s-13.128205-5.907692-13.128205-13.128205c0-20.348718 16.410256-36.758974 36.758974-36.758974 20.348718 0 36.758974 16.410256 36.758975 36.758974 0 7.220513-5.907692 13.128205-13.128205 13.128205z" fill="#282829" p-id="2765"></path><path d="M427.979487 617.025641H377.435897c-7.220513 0-13.128205-5.907692-13.128205-13.128205s5.907692-13.128205 13.128205-13.128205h50.54359c7.220513 0 13.128205 5.907692 13.128205 13.128205s-5.907692 13.128205-13.128205 13.128205z" fill="#FF9596" p-id="2766"></path><path d="M424.697436 561.887179c-7.220513 0-13.128205-5.907692-13.128205-13.128205 0-5.907692-4.594872-10.502564-10.502564-10.502564-5.907692 0-10.502564 4.594872-10.502564 10.502564 0 7.220513-5.907692 13.128205-13.128206 13.128205s-13.128205-5.907692-13.128205-13.128205c0-20.348718 16.410256-36.758974 36.758975-36.758974 20.348718 0 36.758974 16.410256 36.758974 36.758974 0 7.220513-5.907692 13.128205-13.128205 13.128205z" fill="#2F2F2F" p-id="2767"></path><path d="M251.405128 647.220513c-3.282051 0-6.564103 0.65641-9.189743 1.31282-19.035897 5.251282-30.194872 24.94359-24.94359 44.635898l43.979487 158.851282c4.594872 15.753846 18.379487 26.25641 34.789744 26.25641l434.543589 2.625641c16.410256 0 30.851282-11.158974 34.789744-26.91282l43.979487-164.102565c0.65641-3.282051 1.312821-6.564103 1.312821-9.846153 0-19.692308-16.410256-36.102564-36.102564-36.102564l-523.158975 3.282051z" fill="#F4849A" p-id="2768"></path><path d="M730.584615 897.312821c-0.65641 0-0.65641 0 0 0l-435.2-2.625642c-23.630769 0-43.979487-15.753846-50.543589-38.728205l-43.979488-158.851282c-7.876923-28.225641 8.533333-57.107692 36.758975-64.328205 4.594872-1.312821 9.189744-1.969231 13.784615-1.969231l522.502564-2.625641c13.784615 0 26.912821 5.251282 36.758975 15.097436 9.846154 9.846154 15.753846 22.974359 15.753846 36.758975 0 4.594872-0.65641 9.189744-1.969231 13.784615l-43.979487 164.102564c-5.907692 23.630769-26.25641 39.384615-49.88718 39.384616z m-478.523077-233.682052c-1.969231 0-3.282051 0-5.251282 0.65641-10.502564 2.625641-16.410256 13.784615-13.784615 24.28718l43.979487 158.851282c2.625641 8.533333 9.846154 14.441026 19.035898 14.441026l434.543589 2.625641c9.189744 0 16.410256-5.907692 19.035898-14.441026l43.979487-164.102564c0.65641-1.969231 0.65641-3.282051 0.65641-5.251282 0-5.251282-1.969231-10.502564-5.907692-13.784615s-8.533333-5.907692-13.784615-5.907693l-522.502565 2.625641z" fill="#222222" p-id="2769"></path><path d="M711.548718 22.974359c16.410256 7.220513 24.287179 26.25641 17.066667 43.323077L609.805128 345.271795c-7.220513 16.410256-26.25641 24.287179-43.323077 17.066667-16.410256-7.220513-24.287179-26.25641-17.066666-43.323077L668.225641 40.041026c7.220513-16.410256 26.25641-24.287179 43.323077-17.066667z" fill="#FFFFFF" p-id="2770"></path><path d="M579.610256 381.374359c-6.564103 0-13.128205-1.312821-19.035897-3.938462-24.94359-10.502564-36.758974-39.384615-26.25641-64.328205L653.128205 33.476923c10.502564-24.94359 39.384615-36.758974 64.328205-26.25641 24.94359 10.502564 36.758974 39.384615 26.256411 64.328205L624.902564 351.835897c-7.876923 18.379487-26.25641 29.538462-45.292308 29.538462zM698.420513 36.758974c-6.564103 0-12.471795 3.938462-15.097436 9.846154L564.512821 325.579487c-3.282051 8.533333 0.65641 17.723077 8.533333 21.661539 8.533333 3.282051 17.723077-0.65641 21.661538-8.533334L713.517949 59.076923c1.969231-3.938462 1.969231-8.533333 0-12.471795s-4.594872-7.220513-8.533334-8.533333c-1.969231-1.312821-4.594872-1.312821-6.564102-1.312821z" fill="#282828" p-id="2771"></path><path d="M295.384615 226.461538h433.23077c28.882051 0 52.512821 23.630769 52.51282 52.512821v52.51282c0 28.882051-23.630769 52.512821-52.51282 52.512821h-433.23077c-28.882051 0-52.512821-23.630769-52.51282-52.512821v-52.51282c0-28.882051 23.630769-52.512821 52.51282-52.512821z" fill="#B68775" p-id="2772"></path><path d="M728.615385 400.410256h-433.23077C257.312821 400.410256 226.461538 369.558974 226.461538 331.487179v-52.51282C226.461538 240.902564 257.312821 210.051282 295.384615 210.051282h433.23077c38.071795 0 68.923077 30.851282 68.923077 68.923077v52.51282c0 38.071795-30.851282 68.923077-68.923077 68.923077z m-433.23077-157.538461c-19.692308 0-36.102564 16.410256-36.102564 36.102564v52.51282c0 19.692308 16.410256 36.102564 36.102564 36.102565h433.23077c19.692308 0 36.102564-16.410256 36.102564-36.102565v-52.51282c0-19.692308-16.410256-36.102564-36.102564-36.102564h-433.23077z" fill="#222222" p-id="2773"></path><path d="M196.923077 298.666667h630.153846c28.882051 0 52.512821 23.630769 52.512821 52.51282v65.641026c0 28.882051-23.630769 52.512821-52.512821 52.51282h-630.153846c-28.882051 0-52.512821-23.630769-52.512821-52.51282v-65.641026c0-28.882051 23.630769-52.512821 52.512821-52.51282z" fill="#B68775" p-id="2774"></path><path d="M827.076923 485.74359h-630.153846C158.851282 485.74359 128 454.892308 128 416.820513v-65.641026C128 313.107692 158.851282 282.25641 196.923077 282.25641h630.153846c38.071795 0 68.923077 30.851282 68.923077 68.923077v65.641026c0 38.071795-30.851282 68.923077-68.923077 68.923077z m-630.153846-170.666667c-19.692308 0-36.102564 16.410256-36.102564 36.102564v65.641026c0 19.692308 16.410256 36.102564 36.102564 36.102564h630.153846c19.692308 0 36.102564-16.410256 36.102564-36.102564v-65.641026c0-19.692308-16.410256-36.102564-36.102564-36.102564h-630.153846z" fill="#222222" p-id="2775"></path><path d="M201.517949 424.041026c-7.876923 0-15.097436-5.907692-16.410257-14.441026-3.282051-29.538462 0-48.574359 9.846154-60.389744 6.564103-7.220513 15.753846-11.158974 25.6-11.158974h69.579487c9.189744 0 16.410256 7.220513 16.410257 16.410256s-7.220513 16.410256-16.410257 16.410257H219.897436s-5.251282 5.251282-1.969231 34.133333c1.312821 9.189744-5.251282 17.066667-14.441026 18.379487-0.65641 0.65641-1.312821 0.65641-1.96923 0.656411z" fill="#2B2B2B" p-id="2776"></path><path d="M341.333333 351.179487m-16.410256 0a16.410256 16.410256 0 1 0 32.820513 0 16.410256 16.410256 0 1 0-32.820513 0Z" fill="#2C2C2C" p-id="2777"></path></svg>