<svg id="Layer_1" data-name="Layer 1" xmlns="http://www.w3.org/2000/svg" viewBox="0 0 1285.43046 1000"><defs><style>.cls-1{fill:#5fc690;}</style></defs><title>Startups Office Day</title><path class="cls-1" d="M733.6117,793.32474a19.81807,19.81807,0,0,0,9.1624-5.31391,2.10722,2.10722,0,0,1-.43622-1.228c0-1.45575,47.407-44.76156,47.407-88.31847,0-.46051-.0098-.992-.03666-1.574a41.21757,41.21757,0,0,0-1.13872-6.80585c-1.39635-4.37411-4.404-8.49025-10.81637-8.49025a19.77219,19.77219,0,0,0-2.98338.24835c-5.09465,1.38793-12.10189,4.77047-18.96244,9.38835a132.59969,132.59969,0,0,0-19.2557,18.79228c-1.39933,1.52906-1.11982,4.09872-3.40471,4.09872-2.57751,0-29.75619-15.30023-51.43722-15.30023a31.82,31.82,0,0,0-8.80235,1.08276c-2.08147,1.09041-8.27724,1.96551-9.55817,13.26622.71149,17.79795,25.30544,49.35836,59.267,77.57289a33.56927,33.56927,0,0,0,8.74336,2.58112Z"/><path class="cls-1" d="M601.08863,402.86312a110.34538,110.34538,0,0,0-6.357,13.05085C597.30946,410.87636,599.35561,406.48851,601.08863,402.86312Z"/><path class="cls-1" d="M592.41212,422.14064a106.65314,106.65314,0,0,0-3.05222,10.97056C590.37805,429.08121,591.46557,425.196,592.41212,422.14064Z"/><path class="cls-1" d="M880.67614,595.33181c-1.51692,3.098-2.93549,6.32107-4.16453,9.63487C877.86027,603.14744,877.48041,602.94214,880.67614,595.33181Z"/><path class="cls-1" d="M469.97234,398.22187A238.33934,238.33934,0,0,0,462.767,370.68C465.52938,380.04085,468.01353,389.4906,469.97234,398.22187Z"/><path class="cls-1" d="M475.2906,435.49483c.207.00733.41382.01741.62036.03574-.17956-.0921-.36663-.19978-.54275-.285C475.343,435.33079,475.316,435.4096,475.2906,435.49483Z"/><path class="cls-1" d="M505.168,462.1079q-1.76538-1.97879-3.48821-3.85128A26.04957,26.04957,0,0,0,505.168,462.1079Z"/><path class="cls-1" d="M578.67756,548.10919a1.767,1.767,0,0,0-.023.28.66.66,0,0,0,.02657.1008c3.5873.41469,6.24157.7139,8.18852.92743C584.15533,548.92618,581.428,548.48126,578.67756,548.10919Z"/><path class="cls-1" d="M899.57421,395.11334a89.3537,89.3537,0,0,0-.82874-12.06936c.09834,2.45832.163,5.044.163,7.62056a146.95776,146.95776,0,0,1-1.81109,24.34675A78.9418,78.9418,0,0,0,899.57421,395.11334Z"/><path class="cls-1" d="M559.18891,274.91417c-.00092-.87428-.00189-1.74809-.00189-2.64986,0-2.41433-.075-4.51111-.20883-6.3316C559.03535,268.53949,559.108,271.61273,559.18891,274.91417Z"/><path class="cls-1" d="M555.8164,254.8563a3.165,3.165,0,0,0-2.36-.9248c-.1,0-.19076.00191-.2709.00191-.1167,0-1.25387-.0322-2.16984-.05952A31.52527,31.52527,0,0,1,555.8164,254.8563Z"/><path class="cls-1" d="M514.76734,252.55424c-.09273-.00184-.171-.00275-.22263-.00275a5.725,5.725,0,0,0-4.58105,2.39187C511.32613,254.70961,511.44416,253.07854,514.76734,252.55424Z"/><path class="cls-1" d="M535.07705,253.58934c.74535,0,1.80932-.082,2.80863-.17549-5.38889-.20162-11.01295-.42019-15.40212-.587A115.04247,115.04247,0,0,0,535.07705,253.58934Z"/><path class="cls-1" d="M446.17671,268.50558c-.09961,1.15725-.10778,2.49323-.10778,4.00575q0,.44526.00031.9109c0,7.31929-.175,18.40931-8.77576,33.05051-.33432.905-.62695,1.67386-.85823,2.30116h5.68523c11.0106,20.61276,34.90028,75.26853,34.90028,111.57146,0,5.16453-.50627,6.78844-.666,10.00327,26.32566,13.54022,83.9187,93.89814,98.17638,112.25466,6.23984,1.02273,12.20877,2.001,18.44913,3.02421q2.139-36.26925,4.2292-71.7105c-6.36654-4.01029-15.41633-8.35462-15.41633-15.79556a121.86728,121.86728,0,0,1,22.48468-69.09776c.90492-1.267,2.58862-82.15962,101.97148-82.15962,61.30509,0,115.20109,42.40084,115.20109,92.66555,0,.09531-5.42194,170.61326-7.44134,175.23847-20.384-2.03493-40.80505-4.074-61.43465-6.13365-.3093,1.914-.5801,3.59011-.87342,5.406a8.08263,8.08263,0,0,0,.95945.16266,65.16711,65.16711,0,0,1,10.43021-.85227c46.62872,0,95.0041,45.43146,103.19055,52.82337,5.71462-45.39343,37.01087-71.68942,37.76538-71.68942.14487,0,.30053-.00356.46856-.00356,3.28609,0,11.30387,1.35945,35.90178,57.25008.86688-1.10751,4.639-6.31786,10.35312-13.09072-.11089-99.73075-8.39466-138.295-8.63448-139.56468-.71928,0-1.34222-.00366-1.92982-.00366-63.50189,0-48.76555,1.71555-58.74236,1.71555-12.9418,0-18.74748-6.9896-18.74748-10.33594a3.59584,3.59584,0,0,1,4.38447-3.51862c2.02181-2.58978,27.13126,3.26594,27.13126-54.92071l-.00006-.24918c0-9.58767-1.16415-21.67032-1.16415-23.237a12.02378,12.02378,0,0,1,6.10244-10.00373c3.95-1.96758,4.39977-1.52815,23.98161-2.35431C905.10554,240.407,845.02858,197.9232,749.192,186.72033c.10836,4.85289.13976,10.187.13976,16.02677,0,8.04772-.05963,17.05583-.05963,27.08842,0,19.48922-18.81066,16.09661-30.44964,16.70374a33.022,33.022,0,0,0-.49464,5.58746c0,11.82193,6.85076,16.85724,6.85076,19.804a3.52315,3.52315,0,0,1-.95773,2.06014,1.72793,1.72793,0,0,1,.50163,1.3027,2.1248,2.1248,0,0,1-2.243,2.2787c-.30987,0-18.3635-2.955-28.84378-26.24284-.26794,0-.48507-.00458-.68348-.00458-4.67384,0-33.54809,1.79391-40.57686,1.79391-22.32436,0-22.672-12.80205-22.672-48.2417,0-4.22382.14141-9.10334.14141-12.52528,0-1.08047-.171-2.16231-.2696-3.33259C537.96443,200.37786,460.24743,249.89705,446.17671,268.50558ZM892.28815,533.16774c.04862,0,.09737,0,.14617.00046,6.8206.54425,6.4383.5825,6.806.5825.06013,0,.14032-.001.27534-.001,8.66586,0,9.73871-12.36766,23.29595-12.36766a2.23875,2.23875,0,0,1,2.46026,2.29474,2.44592,2.44592,0,0,1-.1866.91459,3.66945,3.66945,0,0,1,1.31965,2.818c0,3.04345-2.99821,3.96217-3.878,3.991-6.9266.22819-8.91937,14.595-25.36679,14.595-.19194,0-7.252-.73681-8.61179-.73681-7.72337,0-6.673,7.709-11.37156,7.709a3.56758,3.56758,0,0,1-3.598-3.6428,7.95551,7.95551,0,0,1,.41113-1.33982,3.28338,3.28338,0,0,1-.78074-2.33506C873.20914,544.82563,876.2514,533.16774,892.28815,533.16774Zm-59.423-219.98491a3.57524,3.57524,0,0,1-3.62373,3.635,3.61836,3.61836,0,0,1-1.12629-7.07528,3.01358,3.01358,0,0,1,2.2232-.75926c2.47378,0,2.81137,1.67248,2.81137,2.29244a2.01352,2.01352,0,0,1-.35815,1.15516A3.8512,3.8512,0,0,1,832.86517,313.18283Zm6.40978-71.49468c5.901,0,12.13855,6.36688,12.13855,13.03206q0,.45708-.03465.92147c-.278,9.93225-4.55138,16.77247-11.74706,25.52848-8.05277,9.79845-6.18709,15.54125-8.721,16.63a3.32343,3.32343,0,0,1-2.72357,1.42138c-3.08749,0-3.30281-3.37933-3.30281-4.98891,0-.26089.00566-.47529.00566-.62127,0-.05685-.00086-.10332-.00325-.13812.39619-15.018,17.33579-26.60253,17.33579-36.26535,0-1.99873-.26067-7.53442-6.19826-7.53442-.46274,0-.92731.0307-1.3904.0307a3.69916,3.69916,0,0,1-2.23511-.61767c-7.88959,4.77551-5.098,13.07926-8.73379,13.07926-1.96831,0-2.27858-1.70684-2.27858-3.26385C821.38645,249.75867,831.36967,241.68815,839.275,241.68815ZM609.68656,271.1701c0,.40048-.11719,4.003-2.51628,4.003l-.02822.00012c-.30183,0-2.46275-.06952-2.46275-3.45872v-.01467c.27974-.75651.59585-2.91744,2.64378-2.91744A2.301,2.301,0,0,1,609.68656,271.1701Zm-13.828-58.55289c6.62131,0,11.471,4.792,11.471,10.993,0,5.92654-5.80409,18.48206-5.80409,24.84666,0,3.88382,1.02858,5.14482,1.02858,7.89457a2.60858,2.60858,0,0,1-2.55609,2.92569c-2.75473,0-2.66618-2.56966-4.18-10.95727,3.28654-16.59056,6.079-20.5147,6.079-24.43931A5.62819,5.62819,0,0,0,596,218.0388a11.89013,11.89013,0,0,0-11.02537,9.33886,2.46289,2.46289,0,0,1-2.32114,2.20814,2.67869,2.67869,0,0,1-2.47648-2.95548C580.177,221.21972,587.40287,212.61721,595.85858,212.61721ZM553.31993,430.01138c0,.96729-.46732,3.85725-4.43671,3.85725-8.386,0-3.89236-12.37911-11.05047-14.73617-9.28874-3.059-8.70366-13.83348-9.86632-19.0782-1.59235.19474-4.98182.68549-5.99825.68549a3.55836,3.55836,0,0,1-3.76526-3.58781,3.49293,3.49293,0,0,1,2.53541-3.50992,2.24649,2.24649,0,0,1,1.61933-1.76184c.85577-.21857,6.5579-1.75129,8.85659-1.75129,2.25224,0,3.9206,1.459,5.06143,3.47876,4.10824,7.27323-1.11414,15.90965,7.52989,17.726,8.91737,1.87364,9.1298,9.06714,10.25552,15.14077a27.002,27.002,0,0,1-.76722,3.11311A3.63426,3.63426,0,0,1,553.31993,430.01138Zm-52.57966-172.096a1.89621,1.89621,0,0,1,1.84981-1.18769,2.34147,2.34147,0,0,1,1.44211.40964c3.102-8.81879,9.4108-9.35856,9.60606-9.35856.72455,0,27.13309,1.06443,39.90592,1.51944,5.73747.20436,10.24653,5.73409,10.24653,23.10269,0,.48937-.49012,39.63185-.784,46.93487-.22464,5.58059-6.68185,10.75428-9.80847,11.90578-1.84976.68136-2.3263,8.296-2.3263,10.2869,0,6.35726,1.78658,9.08685,1.78658,11.35684a5.21926,5.21926,0,0,1-.99037,2.57654,2.66977,2.66977,0,0,1,.05206.51732c0,2.16734-2.206,2.27783-3.09174,2.27783-.10057,0-.18412-.00142-.24549-.00142-4.24684,0-16.85569-3.73766-21.16267-22.26829-17.41449-1.7128-30.82114-2.48535-30.82114-14.87546C496.39915,321.01783,500.2407,259.054,500.74027,257.91534Z"/><g id="_2Aw0L1.tif" data-name="2Aw0L1.tif"><path d="M957.75274,783.36255c1.328,16.67264,1.407,17.31043,1.407,17.94689,0,.086-.00144.172-.00144.29745,0,28.02609-63.18644,52.07442-111.834,52.07442-72.26867,0-188.56285-97.66739-188.56285-141.83717,0-17.043,17.85652-17.69741,21.52605-17.69741.30522,0,.51229.00453.60277.00453,18.65664,0,38.5197,9.23868,50.86873,14.25095,21.813-25.504,36.8543-31.47306,45.85506-31.47306,8.28311,0,16.75178,5.27179,16.75178,21.68383,0,40.25643-44.354,90.4149-49.79526,90.4149a2.42473,2.42473,0,0,1-2.23274-2.24515c0-1.45568,47.407-44.76129,47.407-88.31815,0-4.7428-.98446-16.8704-11.99173-16.8704-20.11243,0-44.25939,32.5279-44.60621,32.5279-2.57753,0-29.7562-15.30015-51.43724-15.30015-17.17242,0-18.43307,9.298-18.43307,12.514,0,.55343.03734.92675.03734,1.04157,0,36.80292,108.04077,136.47513,186.19807,136.47513,43.466,0,104.853-22.90683,104.853-47.46106,0-111.85636-130.976-203.45663-133.14763-203.45663a4.09525,4.09525,0,0,0-1.98292.58415c-19.52081,10.89093-18.53457,25.53957-22.73561,25.53957a2.17933,2.17933,0,0,1-2.22248-2.26571c0-2.94068,6.56964-17.34274,21.6468-27.07254-.50946-.45071-26.909-16.66658-52.81025-16.66658-3.90794,0-9.28035.44853-11.62286,1.32408-.127.711-6.99412,56.29282-66.06277,56.29282-45.11555,0-73.85182-40.47007-73.85182-65.18495,0-2.26234.41338-4.83968,1.77861-15.19273-11.5354-2.75665-22.90822-5.59245-34.67656-7.18374a1.76631,1.76631,0,0,0-.023.27984c0,1.58395,19.92151,26.8627,19.92151,30.872a2.2886,2.2886,0,0,1-2.25674,2.15245c-1.97415,0-89.416-130.94472-120.95115-146.168-8.03759,27.13833-22.28907,30.32914-24.45877,30.32914-7.26087,0-12.153-8.52285-12.153-16.84929,0-17.39462,19.06673-22.55832,23.8298-22.55832,2.98051,0,5.06515.77168,9.18748,2.05941a59.10721,59.10721,0,0,0,.55988-7.948c0-38.76516-28.13428-97.33818-33.1587-107.10148l-54.29,4.62778c-2.48727,17.44853-8.90878,55.052-8.90878,109.1282,0,67.81684,4.60994,64.26818,121.75038,208.658.06137-.16059,14.212-39.57267,19.50366-39.57267a2.28335,2.28335,0,0,1,2.25926,2.20377c0,2.86688-25.22441,34.86713-25.22441,93.90845,0,78.47986,39.59931,121.90635,39.59931,125.82894a2.31491,2.31491,0,0,1-2.2552,2.212c-6.01735,0-27.10585-46.95511-27.305-47.14589.52672,3.87778,2.93219,19.61054,2.93219,32.14352,0,.80222-.0805,1.59219-.0805,2.39845a18.09065,18.09065,0,0,0,.19119,2.05023,2.499,2.499,0,0,1-2.50788,2.39135c-1.54,0-1.98882-1.59258-5.35037-1.59258a241.63725,241.63725,0,0,1-29.99448,1.72038c-108.49174,0-189.54736-64.81383-189.54736-170.04137q0-.89484-.0004-1.72073c0-8.25523.08864-11.43176,2.92294-11.43176h.04488c1.9867,0-.71617.13215,57.32827,36.12977-1.063-4.86615-12.48692-33.11111-12.48692-70.785,0-38.89372,14.39339-71.39724,18.5983-71.39724,1.66912,0,2.40091,1.534,3.7688,2.11361C406.433,548.86169,453.08961,636.28557,454.945,638.3627q-.0042-.41019-.0042-.8194c0-13.48557,3.40562-26.17561,8.31626-38.6333-51.152-75.45395-91.88719-78.56078-91.88719-172.70132,0-52.96084,5.71821-86.07442,8.80907-106.35181,1.29383-8.48775-1.28946-5.80416,14.11012-7.62669-.45039-1.89848-10.41344-24.47583-10.41344-51.644,0-5.06655.18207-16.62885,6.65617-31.94592,16.53354-39.11679,17.94843-41.94758,24.12382-41.94758l.07917.00033c6.10773-35.25281,4.35387-34.35223,9.34791-34.4225,36.6898-.51624,30.07368-.61809,33.30783-.61809,3.9183,0,7.76974.49125,11.65854.67955a3.64558,3.64558,0,0,1,3.52162,3.94237c0,.09384-17.33179,102.76042-24.42355,107.68469-2.00556,1.39265-2.08181,4.23347-2.08181,8.47161q0,.52323.00051,1.07482c0,7.70243-.22664,19.54543-10.17472,35.26846h6.22936c11.01058,20.61259,34.90027,75.26855,34.90027,111.57142,0,5.16453-.50627,6.78826-.666,10.00331,26.32569,13.54038,83.91872,93.89813,98.17636,112.25463,6.23986,1.02285,12.20877,2.00126,18.44913,3.02416q2.139-36.26943,4.22922-71.7103c-6.36656-4.01052-15.4163-8.35459-15.4163-15.7956a121.86814,121.86814,0,0,1,22.48466-69.098c.9049-1.26655,2.58859-82.15926,101.97145-82.15926,61.30508,0,115.20112,42.40066,115.20112,92.66552,0,.09519-5.42195,170.61325-7.44135,175.23834-20.384-2.03515-40.805-4.074-61.43468-6.13371-.30924,1.914-.58,3.59035-.87339,5.40595a8.05889,8.05889,0,0,0,.95943.16266,65.16653,65.16653,0,0,1,10.43021-.85228c46.62876,0,95.0041,45.43172,103.19058,52.82339,5.71462-45.39331,37.01088-71.68949,37.76539-71.68949.14484,0,.30046-.00355.46846-.00355,3.286,0,11.30367,1.35918,35.90187,57.25028,2.33787-2.987,25.76923-35.783,51.59461-48.72933,2.93609,4.26791,13.47243,46.40264,13.47243,91.03511C1005.484,751.50785,969.21421,775.59424,957.75274,783.36255ZM659.4785,349.84406c-3.47179.69369-72.7284,33.59122-72.7284,107.365a7.26471,7.26471,0,0,0,3.09754,6.26449c18.91439,13.80721,38.32045,9.56508,38.32045,17.543,0,.49837-11.04493,82.79285-11.04493,84.11558,0,3.666,24.33757,42.70474,65.61976,42.70474,15.51393,0,38.86223-5.643,62.21394-31.55258,5.58007-6.19134,11.77763-98.7117,18.9087-98.7117.87206,0,1.23464.12621,4.70166.89906,1.07138-5.0933,1.20351-8.05174,3.56191-8.05174a2.33012,2.33012,0,0,1,2.31567,2.46275c0,.93779-.27478,1.09478-1.23393,6.87937,1.14461.12744,2.08819.35537,2.98915.35537a66.60629,66.60629,0,0,0,7.284-.85162c11.88894-2.10352,15.93077-73.44467,15.93077-73.53861,0-20.36783-4.80683-22.29144-14.966-22.29144-15.45493,0-15.80269,18.96251-20.68171,49.178-1.63326,10.11605.37425,11.89889-5.43776,11.89889-23.76172,0-38.86825-31.48984-39.67291-32.95541C695.94613,370.19415,682.16035,398.50065,659.4785,349.84406ZM501.0372,797.13047l.50991-.07715c-10.64476-121.04939-95.65769-237.9607-146.9821-263.9048l-.24656.35356Q427.67783,665.31621,501.0372,797.13047Zm-25.986,9.72823.10435-.58911c-150.66787-69.04377-167.0633-136.72912-189.47922-168.27315-.1064,2.22344-.1525,4.42618-.1525,6.6164C285.52387,789.49818,428.09872,805.40138,475.05124,806.8587ZM413.735,191.30246c-4.24346,3.7278-25.29631,46.02823-25.29631,70.42965,0,15.53981,7.82331,50.04278,11.87411,50.04278,28.01015,0,28.16021-3.36188,28.16021-19.35223,0-4.45164-.67572-5.88893-.67572-6.98958,0-39.64577,14.52549-44.51189,14.52549-59.77209,0-.90629-.13277-1.81572-.22489-2.99769-12.10578,5.47895-24.94115,33.559-28.579,33.559a2.19487,2.19487,0,0,1-2.16288-2.1344c0-4.18032,26.62409-34.9142,26.62409-48.10532a2.94288,2.94288,0,0,0-.77761-1.96823c-16.55834,8.51706-36.29956,51.75267-39.8768,51.75267a2.08573,2.08573,0,0,1-2.046-1.93985c0-3.08956,13.97968-24.76045,14.03819-24.85452,2.435-3.91521,5.56051-19.8951,5.56051-27.47178A35.47768,35.47768,0,0,0,413.735,191.30246ZM913.42437,680.56157c0,.66484,1.0907,3.45522,15.4534,25.42528.75962-.50916,57.06133-132.18237,57.06133-132.5217,0-.1847-.14262-.24411-.27777-.3554-44.10615,30.70682-72.202,93.72394-72.202,107.2012C913.45935,680.39162,913.42437,680.44251,913.42437,680.56157ZM902.0728,564.50711l-.65092-.34443c-.10963.138-29.46282,32.81032-29.46282,63.62547,0,3.11034.19733,4.12705,1.40511,5.32622,19.29936,19.16063,29.26679,33.90344,32.61327,37.41309C904.66592,634.91658,903.36936,599.71183,902.0728,564.50711Zm-417.64071,136.903c0-.54989.0244-.90073.0244-1.17261,0-.1832-18.04109-92.23736-18.51425-92.23736-.05059,0-.11809.00457-.225.00457a101.068,101.068,0,0,0-5.50094,33.293,30.567,30.567,0,0,0,3.51095,14.03314C476.51051,680.5383,482.2375,696.80618,484.43209,701.41006ZM470.91334,433.15157a19.209,19.209,0,0,0-8.15481-2.24806c-5.18323,0-19.34116,4.82793-19.34116,17.79193,0,5.90616,3.1486,12.13412,7.52725,12.13412C455.59527,460.82956,467.18243,450.78634,470.91334,433.15157ZM441.95819,265.12149c-2.91647.387-5.53354.73427-8.17,1.0841-.91956,5.38329-.12991,27.14586-1.93548,40.25744C440.71447,294.96531,440.62456,284.91129,441.95819,265.12149Z"/><path d="M718.82249,246.53909a33.0218,33.0218,0,0,0-.49462,5.58744c0,11.82226,6.85073,16.85721,6.85073,19.804,0,1.11157-1.34113,3.08623-2.86272,3.08623a2.61484,2.61484,0,0,1-1.41581-.47742c-17.037-11.01125-15.1114-9.10859-25.02319-26.9375-.90091,0-1.798-.01978-2.69262-.01978-3.013,0-38.96214,1.63217-41.04577,1.63217-10.08359,0-19.30572-5.50556-19.30572-17.6088,0-1.85777.17109-6.19372.17109-9.43894,0-5.17928-1.30215-51.46156-1.30215-51.98869,0-23.51365,12.0572-23.85914,90.93977-23.85914q3.58231,0,7.34991.00032c17.84827,0,19.341,16.22609,19.341,56.369,0,8.06339-.06023,17.09176-.06023,27.14745C749.27216,249.32452,730.46149,245.93208,718.82249,246.53909Zm-3.06114,18.63755c-1.27914-4.20081-2.34767-6.56987-2.34767-12.59051,0-2.88565.2749-5.78574.55-8.685.17777-1.8734.88176-2.8846,12.70942-2.8846.84513,0,1.672.00422,2.47758.00422,8.71148,0,14.93868-.49326,14.93868-12.14775,0-68.88088-.08148-77.49421-14.22068-77.49421-6.4408,0-56.91427,1.49881-81.69727,2.00072-8.78843.178-11.45328,9.23976-11.45328,14.35115,0,.5924,1.2459,47.467,1.64281,66.1016.16637,7.81031,8.36137,10.24663,12.51825,10.24663.16573,0,41.01018-1.69287,44.83733-1.69287,1.32784,0,2.67234.02609,4.05854.02609C702.718,251.42172,706.79068,259.65713,715.76135,265.17664Z"/><path d="M925.61883,356.0623c3.84933-.18014,16.59381-.87138,20.14483-.87138,5.60462,0,13.25314,2.1492,13.25314,10.5481,0,.086-3.3355,60.83325-4.1196,73.34309-.47867,7.63684-8.64515,14.72661-14.33513,14.75214-65.96281.29638-40.23028,2.32117-54.91014,2.32117-10.21736,0-19.39649-4.08278-19.39649-7.02443,0-.12058.30924-3.221,3.0648-3.294,24.7056-.65486,24.9114-48.20309,24.9114-53.82439l-.00006-.24918c0-9.58775-1.16411-21.67041-1.16411-23.2368a12.02339,12.02339,0,0,1,6.10241-10.00372C903.28013,356.47505,903.58823,357.03475,925.61883,356.0623ZM875.18161,450.06a46.81939,46.81939,0,0,0,11.39345,1.357c8.04636,0,9.236-2.38156,11.51677-2.38156,1.73718,0,2.95749.43426,4.30972.43426,4.64174,0,8.76259.003,12.425.003,4.73843,0,9.34458.16817,13.5901.16817,12.39377,0,21.71428-1.43313,22.28094-12.66672,3.31449-65.70016,3.52778-70.78835,3.52778-71.4626,0-1.86622-.41589-5.55069-7.87188-5.55069-47.50676,0-48.62072,2.63466-48.62072,7.99372,0,.45091,1.17569,11.68141,1.17569,22.71C898.90845,444.98772,877.29542,448.25426,875.18161,450.06Z"/><path d="M530.41677,331.07386c-.84548,0-1.60354-.00614-2.32927-.00614-1.1948,0-1.28315.016-2.15534.016-2.13381,0-26.54718-.00664-26.54718-13.13838,0-.09519,3.04553-52.23173,3.05167-52.32855,1.07781-17.00288,10.95657-17.83821,11.20161-17.83821.72455,0,27.13308,1.06452,39.90593,1.5196,5.73743.20442,10.24652,5.73428,10.24652,23.10285,0,.48942-.49011,39.63168-.784,46.93493-.22465,5.58029-6.68186,10.75414-9.80849,11.90577-1.84973.68134-2.32632,8.29592-2.32632,10.28668,0,6.35716,1.78662,9.087,1.78662,11.3569,0,.45761-.58926,3.55518-2.90555,3.55518C549.39291,356.44046,534.6363,354.7872,530.41677,331.07386Zm17.35332,19.80239a45.44356,45.44356,0,0,1-1.47585-10.5223c0-.20352.04637-12.16637,4.93792-13.41807,7.32422-1.87425,7.98725-11.30564,7.98725-35.98475,0-5.45595-.03241-11.65713-.03241-18.68662,0-17.80552-4.08022-18.33325-5.72241-18.33325-.10348,0-.19728.00209-.27976.00209-2.6249,0-37.13794-1.38189-38.64014-1.38189-4.4853,0-6.62914,5.14668-6.95,8.78093-1.27075,14.39318-3.43285,56.54168-3.43285,56.63591,0,3.88259,5.99091,8.49364,21.155,8.49364a57.99067,57.99067,0,0,0,7.28813-.53428c1.93452,0,1.97012,1.96608,1.97012,2.35526,0,.12362-.00318.24769-.00318.37146C534.5719,330.72356,536.593,345.98042,547.77009,350.87625Z"/><path d="M851.4135,254.72029q0,.4573-.03465.92123c-.278,9.93253-4.55139,16.77274-11.74709,25.52852-8.9871,10.93566-5.61626,16.82408-9.79972,16.82408a2.36842,2.36842,0,0,1-2.37519-2.49987c0-14.36791,18.78915-22.64062,18.78915-39.68886,0-8.40491-6.87911-9.03877-7.05819-9.03877a6.631,6.631,0,0,0-1.65985.21857c-14.188,3.75372-9.5987,15.18045-13.86295,15.18045-1.96832,0-2.27855-1.70676-2.27855-3.264,0-9.14315,9.98324-17.21358,17.88851-17.21358C845.176,241.68811,851.4135,248.05506,851.4135,254.72029Z"/><path d="M595.818,248.32c3.28654-16.59066,6.079-20.51454,6.079-24.43936A5.62818,5.62818,0,0,0,596,218.03881a11.89031,11.89031,0,0,0-11.02536,9.339,2.46283,2.46283,0,0,1-2.32115,2.208,2.67846,2.67846,0,0,1-2.47645-2.95541c0-5.41038,7.22584-14.01293,15.68156-14.01293,6.62131,0,11.471,4.79188,11.471,10.9928,0,5.9264-5.804,18.48233-5.804,24.84664,0,3.88383,1.02855,5.14486,1.02855,7.89472A2.6083,2.6083,0,0,1,599.998,259.277C597.24325,259.277,597.33182,256.70741,595.818,248.32Z"/><path d="M892.28816,533.1677l.14614.00031c6.82748.54481,6.43753.58286,6.80715.58286.06,0,.14-.001.27424-.001,8.66586,0,9.73872-12.36785,23.296-12.36785a2.2387,2.2387,0,0,1,2.46027,2.29485c0,1.6102-1.43327,2.71249-3.46766,2.89349-11.07944.986-10.34987,12.22725-22.40306,12.22725-2.04224,0-3.83249-.49761-7.79454-.49761-8.649,0-13.31557,5.24508-13.31557,6.72534,0,.56919.27708.93647.27708,1.77427,0,1.97137-2.05608,2.08216-2.44756,2.08216a2.895,2.895,0,0,1-2.91146-3.23178C873.20914,544.82557,876.25137,533.1677,892.28816,533.1677Z"/><path d="M554.06109,426.47461c-.52423,2.14235-.66327,5.32276-3.71975,5.32276a2.13218,2.13218,0,0,1-2.14183-2.19475c0-.94015.5756-1.502.5756-3.64576a19.698,19.698,0,0,0-1.4374-6.35021c-.96682-2.80144-4.212-3.22316-5.40457-3.44725-12.9522-2.43405-6.28141-21.20011-11.5642-21.20011-1.8622,0-5.46821,1.60394-7.14364,1.60394a2.502,2.502,0,0,1-2.54424-2.43079,2.29771,2.29771,0,0,1,1.67663-2.2523c.85576-.21876,6.55787-1.75129,8.85658-1.75129,2.2522,0,3.92057,1.45906,5.06139,3.47883,4.10826,7.27334-1.11415,15.90984,7.52994,17.726C552.72294,413.20736,552.93535,420.40074,554.06109,426.47461Z"/><path d="M607.14205,275.17313c-.30194,0-2.46275-.06957-2.46275-3.45855l0-.01482c.27972-.75632.59584-2.91755,2.64376-2.91755a2.30114,2.30114,0,0,1,2.36351,2.388c0,.40043-.11724,4.00281-2.5163,4.00281Z"/><path d="M830.09786,313.655a2.4105,2.4105,0,0,1-2.67772-2.3225c0-.072.03472-2.34934,2.9182-2.34934,2.47381,0,2.81139,1.67282,2.81139,2.29276C833.14973,312.881,831.52009,313.655,830.09786,313.655Z"/><path d="M678.7843,473.01328c-1.3846,0-2.76925-.00529-4.15387-.00529-1.74475,0-2.51115.00891-2.63721.00891-2.681,0-4.48829-1.59614-4.48829-4.08053,0-3.21576,4.20289-20.95328,13.10958-20.95328,7.53677,0,10.71731,13.0251,10.71731,19.62714,0,4.76786-4.04161,5.242-6.51815,5.242-.61488,0-1.13328-.02923-1.4694-.02923-1.51991,0-3.04009-.01431-4.56-.01431Zm7.61007-5.18861c-.46936-8.98779-3.31831-14.79387-5.81417-14.79387-1.7925,0-5.57105,3.325-7.90321,14.79387Z"/><path d="M779.6299,442.664c-1.27277.85829-1.20494,1.23467-2.749,1.23467-2.21972,0-2.30934-1.43031-2.30934-1.934a3.329,3.329,0,0,1,.06742-.6494c8.02622-40.18211,7.48333-40.82911,9.81951-40.82911.07774,0,.15866.00071.2432.00071a2.29728,2.29728,0,0,1,2.25249,2.46938c0,1.6119-5.97127,30.34988-6.53219,34.89739,3.024,1.23443,4.83242,4.18768,4.83242,10.96475a50.62661,50.62661,0,0,1-.97881,8.83959c-.39849,2.24188-.87181,5.29829-3.07553,5.29829a2.21655,2.21655,0,0,1-2.23135-2.38735c0-2.30316,1.411-3.5799,1.411-12.80507C780.37969,444.36,780.2767,445.4771,779.6299,442.664Z"/><path d="M639.19466,382.06432a2.4544,2.4544,0,0,1,2.72484-2.42584,12.70829,12.70829,0,0,1,1.75537.6871c15.9597,8.61581,16.23083,8.43846,16.23083,10.37885a2.34717,2.34717,0,0,1-2.35845,2.34643,5.856,5.856,0,0,1-2.68362-1.00565c-14.55251-7.88789-15.669-8.161-15.669-9.97691Z"/><path d="M687.89752,415.87559q0,.127-.00693.25824c-.61084,4.59662-.52169,7.67114-3.17274,7.67114a2.44286,2.44286,0,0,1-2.43286-2.64884q0-.153.01273-.31288c.49052-6.119,1.10791-7.825,3.1301-7.825C686.83313,413.01824,687.89752,414.03313,687.89752,415.87559Z"/><path d="M655.0773,415.67976c.39156-3.15881.26845-6.24672,2.87552-6.24672a2.49673,2.49673,0,0,1,2.4875,2.70189c0,2.95811-.16084,8.03331-2.98026,8.03331-2.32611,0-2.41453-2.50467-2.41453-2.97982,0-.03909.0006-.06445.0006-.07354,0-.42332.0516-.94019.08685-1.42827Z"/><path d="M697.84426,425.60385l.01863,0c2.78281,0,2.849,2.17624,2.849,2.47108l-.00016.0296a1.857,1.857,0,0,1-.96934,1.72294c-1.92842,1.012-6.07268,2.91055-6.84131,2.91055a2.49549,2.49549,0,0,1-2.28659-2.5886C690.61453,428.84316,691.59335,427.80523,697.84426,425.60385Z"/><path d="M641.03712,417.21969a10.12506,10.12506,0,0,1,2.06276,1.20267c4.17367,4.13647,4.20762,4.94315,4.20762,5.57235v.03109a2.45028,2.45028,0,0,1-2.35226,2.46625c-.81392,0-1.5602-.10935-5.80025-5.16669a2.21116,2.21116,0,0,1-.53463-1.4149C638.62036,418.34947,640.28857,417.739,641.03712,417.21969Z"/><path d="M693.75875,195.61647c33.35728,27.066,33.86524,26.74406,33.86524,28.52024,0,.0558-.0005.11366-.0005.17451a2.68877,2.68877,0,0,1-2.56446,2.62763c-2.39072,0-13.65336-10.69868-34.7602-27.0821-13.11146,12.45949-27.68492,29.25223-30.26665,29.25223a2.63047,2.63047,0,0,1-2.59843-2.578c0-2.27714,27.66871-29.02081,28.74838-29.90722-11.88191-10.486-32.35964-24.84946-32.35964-27.58032a2.67479,2.67479,0,0,1,2.599-2.63791c2.2847,0,14.12807,11.03344,33.42817,26.02595,15.93869-15.34971,26.35044-27.9066,28.90251-27.9066a2.69865,2.69865,0,0,1,2.59728,2.59553C721.34944,169.32117,696.14654,193.86179,693.75875,195.61647Z"/><path d="M923.46685,408.22986c-7.62824,13.33038-7.7007,14.2167-9.4905,14.2167a2.28309,2.28309,0,0,1-2.24563-2.18362c0-1.37914.50131-1.59624,8.90871-16.58521-7.84187-12.91032-9.99767-15.26255-9.99767-16.82a2.41,2.41,0,0,1,2.28914-2.20087c2.08339,0,2.73159,2.79348,10.28274,14.15187,4.96442-6.96526,6.8982-14.16832,9.69646-14.16832a2.234,2.234,0,0,1,2.2102,2.25827c0,2.03909-8.64659,14.88771-8.64659,16.58564,0,1.8553,10.32411,15.52655,10.32411,17.98963a2.24509,2.24509,0,0,1-2.27986,2.11993C932.2892,423.59393,931.8206,420.63309,923.46685,408.22986Z"/><path d="M529.69495,288.04478c-8.72187-14.34778-8.9326-14.41154-8.9326-15.56a2.28951,2.28951,0,0,1,2.27766-2.22158c2.41037,0,3.12406,3.96557,9.69073,13.58864,5.94917-6.70795,9.117-13.3042,11.5764-13.3042a2.24839,2.24839,0,0,1,2.20124,2.15115c0,1.84947-3.91617,5.60972-11.12967,15.69218,10.662,17.535,10.72389,17.371,10.72389,18.45712v.0388A2.21148,2.21148,0,0,1,543.9,309.0737c-2.5323,0-2.91719-3.45006-11.56366-16.5439-6.53908,7.38985-12.21564,17.44039-14.64711,17.44039a2.271,2.271,0,0,1-2.24557-2.12861C515.44362,306.25226,516.29656,305.907,529.69495,288.04478Z"/></g><path class="cls-1" d="M379.11811,366.59089a9.34844,9.34844,0,0,0-.50432,1.15195q-.52812,5.85529-.98562,12.23065C378.05127,376.53184,378.54809,372.24021,379.11811,366.59089Z"/><path class="cls-1" d="M420.5496,540.65175c10.9465,13.87289,24.57619,30.512,41.538,51.23979A646.71927,646.71927,0,0,0,420.5496,540.65175Z"/><path class="cls-1" d="M454.945,638.3627q-.0042-.41034-.00418-.81929c0-13.4857,3.40562-26.17548,8.31625-38.6334-51.152-75.45411-91.88716-78.56081-91.88716-172.70135,0-14.43191.42665-27.3792,1.107-39.00547-4.72333,17.54044-10.85635,46.28695-14.53455,86.30691v2.70255c1.57019,9.146-.7663,20.28239,5.93164,55.93877C413.842,562.74592,453.24306,636.45744,454.945,638.3627Z"/></svg>