<svg t="1656236846627" class="icon" viewBox="0 0 1024 1024" version="1.1" xmlns="http://www.w3.org/2000/svg" p-id="1050" width="200" height="200"><path d="M538.32 865.56a370 370 0 0 1-88.37 10.64C246.07 876.2 80.8 710.93 80.8 507.05S246.07 137.9 449.95 137.9 819.1 303.18 819.1 507.05q0 10.3-0.56 20.46" fill="#FFD192" p-id="1051"></path><path d="M449.95 894.57A387.52 387.52 0 0 1 175.93 233a387.52 387.52 0 0 1 661.54 274c0 7.14-0.2 14.36-0.58 21.46a18.37 18.37 0 0 1-36.69-2c0.35-6.44 0.53-13 0.53-19.46a350.78 350.78 0 0 0-598.82-248 350.78 350.78 0 0 0 248 598.81 352.42 352.42 0 0 0 84-10.11 18.37 18.37 0 1 1 8.77 35.68 389.2 389.2 0 0 1-92.73 11.19z" fill="#C49F86" p-id="1052"></path><path d="M458.89 286.71c-21.69 0-42.29-6.49-58-18.27-17-12.78-26.81-31-26.81-49.93a18.37 18.37 0 0 1 36.74 0c0 17 22 31.45 48.06 31.45S507 235.57 507 218.52a18.37 18.37 0 0 1 36.74 0c0 19-9.77 37.15-26.81 49.93-15.75 11.78-36.34 18.26-58.04 18.26z" fill="#93CCCA" p-id="1053"></path><path d="M525.32 336.54A18.37 18.37 0 0 1 507 318.16c0-17-22-31.45-48.06-31.45s-48.06 14.4-48.06 31.45a18.37 18.37 0 0 1-36.74 0c0-19 9.77-37.15 26.81-49.93 15.71-11.78 36.3-18.27 58-18.27s42.29 6.49 58 18.27c17 12.78 26.81 31 26.81 49.93a18.37 18.37 0 0 1-18.44 18.38z" fill="#93CCCA" p-id="1054"></path><path d="M230.85 391.86m-41.36 0a41.36 41.36 0 1 0 82.72 0 41.36 41.36 0 1 0-82.72 0Z" fill="#B6DFE1" p-id="1055"></path><path d="M230.85 451.6a59.73 59.73 0 1 1 59.73-59.73 59.8 59.8 0 0 1-59.73 59.73z m0-82.73a23 23 0 1 0 23 23 23 23 0 0 0-23-23z" fill="#C49F86" p-id="1056"></path><path d="M169.31 528.2a25.13 25.13 0 1 1 25.13-25.13 25.16 25.16 0 0 1-25.13 25.13zM229.43 718.11A25.13 25.13 0 1 1 254.56 693a25.16 25.16 0 0 1-25.13 25.11zM356.53 452.25a25.13 25.13 0 1 1 25.13-25.13 25.16 25.16 0 0 1-25.13 25.13zM697 428.78a25.17 25.17 0 1 1 1.66-0.05q-0.86 0.05-1.66 0.05z" fill="#FFAA99" p-id="1057"></path><path d="M398.41 527.51h180.17l15.13 54.1c11.62 15.17 84.73 9.81 96.36-5.36l24.77-48.74H895s-11.17 248.3-248.29 248.3-248.3-248.3-248.3-248.3z" fill="#FFE9D1" p-id="1058"></path><path d="M646.71 794.18a18.37 18.37 0 0 1-18.37-18.37V595.64a18.37 18.37 0 0 1 36.74 0v180.17a18.37 18.37 0 0 1-18.37 18.37z" fill="#C49F86" p-id="1059"></path><path d="M646.71 614a86.65 86.65 0 0 1-84.54-68.13H398.41a18.37 18.37 0 1 1 0-36.74h180.17A18.37 18.37 0 0 1 597 527.51a49.76 49.76 0 0 0 99.51 0 18.37 18.37 0 0 1 18.37-18.37H895a18.37 18.37 0 0 1 0 36.74H731.25A86.65 86.65 0 0 1 646.71 614z" fill="#C49F86" p-id="1060"></path><path d="M471.14 721.45A18.37 18.37 0 0 1 458.21 690l128-126.83a18.37 18.37 0 1 1 25.86 26.1l-128 126.83a18.31 18.31 0 0 1-12.93 5.35zM822.28 721.45a18.31 18.31 0 0 1-12.93-5.32l-128-126.83a18.37 18.37 0 1 1 25.86-26.1l128 126.8a18.37 18.37 0 0 1-12.93 31.42z" fill="#C49F86" p-id="1061"></path><path d="M999.53 527.51c0 194.86-158 352.82-352.82 352.82s-352.82-158-352.82-352.82h104.52a248.3 248.3 0 0 0 496.59 0z" fill="#FFD192" p-id="1062"></path><path d="M646.71 898.7a371.19 371.19 0 0 1-371.19-371.19 18.37 18.37 0 0 1 18.37-18.37h104.52a18.37 18.37 0 0 1 18.37 18.37 229.92 229.92 0 0 0 459.85 0A18.37 18.37 0 0 1 895 509.14h104.53a18.37 18.37 0 0 1 18.37 18.37A371.19 371.19 0 0 1 646.71 898.7z m-334-352.82a334.46 334.46 0 0 0 667.91 0h-67.86a266.68 266.68 0 0 1-532.1 0z" fill="#C49F86" p-id="1063"></path></svg>