<svg t="1667587048877" class="icon" viewBox="0 0 1024 1024" version="1.1" xmlns="http://www.w3.org/2000/svg" p-id="21087" width="200" height="200"><path d="M900.54656 512c0 37.56032-30.44352 68.00384-68.01408 68.00384l-252.53888 0 0 252.53888c0 37.57056-30.44352 68.01408-68.00384 68.00384-18.78016 0-35.77856-7.60832-48.0768-19.90656-12.30848-12.30848-19.9168-29.30688-19.90656-48.0768L443.99616 579.9936l-252.55936 0c-18.76992 0-35.75808-7.59808-48.0768-19.9168-12.288-12.29824-19.89632-29.29664-19.89632-48.06656-0.01024-37.56032 30.43328-68.00384 68.00384-68.00384l252.53888 0L444.0064 191.45728c0-37.56032 30.45376-68.01408 68.01408-68.01408 37.55008 0.01024 67.97312 30.43328 67.9936 67.9936L580.01408 444.0064l252.55936 0C870.12352 444.02688 900.52608 474.44992 900.54656 512z" p-id="21088" fill="#e6e6e6"></path></svg>