<svg t="1660343604102" class="icon" viewBox="0 0 1024 1024" version="1.1"
	xmlns="http://www.w3.org/2000/svg" p-id="9891" width="200" height="200">
	<path d="M776 569.6l-491.2 35.2-9.6-219.2 548.8-3.2z" fill="#E95573" p-id="9892"></path>
	<path d="M820.8 398.4l-547.2 35.2v-176h585.6z" fill="#6C73CA" p-id="9893"></path>
	<path d="M843.2 268.8l-80 286.4-467.2 30.4-17.6-316.8h564.8m40-32H246.4l20.8 380.8 521.6-33.6 94.4-347.2z" fill="#322E2C" p-id="9894"></path>
	<path d="M675.2 756.8m-73.6 0a73.6 73.6 0 1 0 147.2 0 73.6 73.6 0 1 0-147.2 0Z" fill="#E95573" p-id="9895"></path>
	<path d="M675.2 712c24 0 44.8 19.2 44.8 44.8S699.2 800 675.2 800c-24 0-44.8-19.2-44.8-44.8s20.8-43.2 44.8-43.2m0-30.4c-41.6 0-73.6 33.6-73.6 73.6 0 41.6 33.6 73.6 73.6 73.6 41.6 0 73.6-33.6 73.6-73.6 0-40-33.6-73.6-73.6-73.6z" fill="#322E2C" p-id="9896"></path>
	<path d="M363.2 756.8m-73.6 0a73.6 73.6 0 1 0 147.2 0 73.6 73.6 0 1 0-147.2 0Z" fill="#E95573" p-id="9897"></path>
	<path d="M363.2 712c24 0 44.8 19.2 44.8 44.8S387.2 800 363.2 800s-44.8-19.2-44.8-44.8 19.2-43.2 44.8-43.2m0-30.4c-41.6 0-73.6 33.6-73.6 73.6 0 41.6 33.6 73.6 73.6 73.6 41.6 0 73.6-33.6 73.6-73.6 0-40-33.6-73.6-73.6-73.6z" fill="#322E2C" p-id="9898"></path>
	<path d="M300.8 665.6h-32l-20.8-371.2-107.2-33.6v-65.6l134.4-1.6z" fill="#E95573" p-id="9899"></path>
	<path d="M243.2 228.8l1.6 28.8-70.4-22.4v-6.4h68.8m32-35.2l-134.4 1.6v65.6l108.8 33.6 19.2 371.2h32l-25.6-472z" fill="#322E2C" p-id="9900"></path>
	<path d="M280 628.8h505.6v36.8H280z" fill="#322E2C" p-id="9901"></path>
</svg>