<svg t="1656237743116" class="icon" viewBox="0 0 1024 1024" version="1.1" xmlns="http://www.w3.org/2000/svg" p-id="8618" width="200" height="200"><path d="M352.8 414a147.7 147.8 0 1 0 295.4 0 147.7 147.8 0 1 0-295.4 0Z" fill="#FFECB6" p-id="8619"></path><path d="M580.8 635.7l-45 45 38.5 212.1H767c0.1 0 6.5-180-186.2-257.1zM420.2 635.7l45 45-38.5 212.1H234s-6.4-180 186.2-257.1z" fill="#F4BA64" p-id="8620"></path><path d="M500.5 680.7l32.9-32.9h-65.8zM500.5 680.7l32.1 154.2-32.1 57.9-32.1-57.9z" fill="#F7931E" p-id="8621"></path><path d="M526.2 571.4c-88.5 0-160.6-72.1-160.6-160.7 0-54.2 19.1-81.8 39.7-103.5 3.7-3.9 9.8-4 13.6-0.4 3.9 3.7 4 9.8 0.4 13.6-20.6 21.7-34.4 45.4-34.4 90.2 0 78 63.4 141.4 141.3 141.4s141.3-63.4 141.3-141.4-63.4-141.4-141.3-141.4c-38.7 0-56.8 11.8-67.5 18.8l-2.7 1.7c-4.5 2.8-10.4 1.5-13.3-3-2.8-4.5-1.5-10.5 3-13.3l2.5-1.6c11.7-7.7 33.6-21.9 78.1-21.9 88.5 0 160.6 72.1 160.6 160.7s-72.1 160.8-160.7 160.8zM259.7 896c-5.3 0-9.6-4.3-9.6-9.6C250 734 373.9 610 526.2 610c73.4 0 130.5 19.8 174.5 60.4 3.9 3.6 4.2 9.7 0.5 13.6-3.6 3.9-9.7 4.2-13.6 0.5-40.3-37.2-93.1-55.3-161.4-55.3-141.7 0-256.9 115.3-256.9 257.1 0 5.4-4.3 9.7-9.6 9.7zM792.8 896c-5.3 0-9.6-4.3-9.6-9.6 0-70.3-17.2-119.3-57.6-163.8-3.6-3.9-3.3-10 0.7-13.6 4-3.6 10-3.3 13.6 0.7 43.3 47.7 62.6 102.2 62.6 176.8-0.1 5.2-4.4 9.5-9.7 9.5z" fill="" p-id="8622"></path><path d="M526.2 128l-75.3 134.6h150.6z" fill="#F7931E" p-id="8623"></path><path d="M449.2 155v107.6h64.5zM603.3 155v107.6h-64.5zM176.2 227.6h-38.5c-5.3 0-9.6-4.3-9.6-9.6s4.3-9.6 9.6-9.6h38.5c5.3 0 9.6 4.3 9.6 9.6s-4.3 9.6-9.6 9.6zM196.5 178.4l-27.3-27.3c-3.7-3.8-9.9-3.8-13.6 0-3.7 3.7-3.7 9.9 0 13.6l27.3 27.3c3.7 3.8 9.9 3.8 13.6 0 3.8-3.7 3.8-9.8 0-13.6z" fill="#F4BA64" p-id="8624"></path><path d="M176.2 227.6h-38.5c-5.3 0-9.6-4.3-9.6-9.6s4.3-9.6 9.6-9.6h38.5c5.3 0 9.6 4.3 9.6 9.6s-4.3 9.6-9.6 9.6zM196.5 178.4l-27.3-27.3c-3.7-3.8-9.9-3.8-13.6 0-3.7 3.7-3.7 9.9 0 13.6l27.3 27.3c3.7 3.8 9.9 3.8 13.6 0 3.8-3.7 3.8-9.8 0-13.6z" fill="#F4BA64" p-id="8625"></path><path d="M176.2 227.6h-38.5c-5.3 0-9.6-4.3-9.6-9.6s4.3-9.6 9.6-9.6h38.5c5.3 0 9.6 4.3 9.6 9.6s-4.3 9.6-9.6 9.6zM196.5 178.4l-27.3-27.3c-3.7-3.8-9.9-3.8-13.6 0-3.7 3.7-3.7 9.9 0 13.6l27.3 27.3c3.7 3.8 9.9 3.8 13.6 0 3.8-3.7 3.8-9.8 0-13.6z" fill="#F4BA64" p-id="8626"></path><path d="M176.2 227.6h-38.5c-5.3 0-9.6-4.3-9.6-9.6s4.3-9.6 9.6-9.6h38.5c5.3 0 9.6 4.3 9.6 9.6s-4.3 9.6-9.6 9.6zM196.5 178.4l-27.3-27.3c-3.7-3.8-9.9-3.8-13.6 0-3.7 3.7-3.7 9.9 0 13.6l27.3 27.3c3.7 3.8 9.9 3.8 13.6 0 3.8-3.7 3.8-9.8 0-13.6z" fill="#F4BA64" p-id="8627"></path><path d="M227.6 253.3v38.6c0 5.3-4.3 9.6-9.6 9.6s-9.6-4.3-9.6-9.6v-38.6c0-5.3 4.3-9.6 9.6-9.6 5.2 0 9.6 4.3 9.6 9.6z" fill="#F7931E" p-id="8628"></path><path d="M227.6 176.2v-38.6c0-5.3-4.3-9.6-9.6-9.6s-9.6 4.3-9.6 9.6v38.6c0 5.3 4.3 9.6 9.6 9.6 5.2 0 9.6-4.3 9.6-9.6zM196.5 178.4l-27.3-27.3c-3.7-3.8-9.9-3.8-13.6 0-3.7 3.7-3.7 9.9 0 13.6l27.3 27.3c3.7 3.8 9.9 3.8 13.6 0 3.8-3.7 3.8-9.8 0-13.6zM176.2 227.6h-38.5c-5.3 0-9.6-4.3-9.6-9.6s4.3-9.6 9.6-9.6h38.5c5.3 0 9.6 4.3 9.6 9.6s-4.3 9.6-9.6 9.6z" fill="#F4BA64" p-id="8629"></path><path d="M176.2 227.6h-38.5c-5.3 0-9.6-4.3-9.6-9.6s4.3-9.6 9.6-9.6h38.5c5.3 0 9.6 4.3 9.6 9.6s-4.3 9.6-9.6 9.6z" fill="#FFDB69" p-id="8630"></path><path d="M259.7 227.6h38.5c5.3 0 9.6-4.3 9.6-9.6s-4.3-9.6-9.6-9.6h-38.5c-5.3 0-9.6 4.3-9.6 9.6-0.1 5.3 4.3 9.6 9.6 9.6zM181.6 240.7L154.3 268c-3.7 3.7-3.7 9.9 0 13.6 3.7 3.8 9.9 3.8 13.6 0l27.3-27.3c3.7-3.7 3.7-9.9 0-13.6-3.7-3.8-9.9-3.8-13.6 0zM254.3 240.7l27.3 27.3c3.7 3.7 3.7 9.9 0 13.6-3.7 3.8-9.9 3.8-13.6 0l-27.3-27.3c-3.7-3.7-3.7-9.9 0-13.6 3.7-3.8 9.8-3.8 13.6 0z" fill="#F4BA64" p-id="8631"></path><path d="M254.3 195.3l27.3-27.3c3.7-3.7 3.7-9.9 0-13.6-3.7-3.8-9.9-3.8-13.6 0l-27.3 27.3c-3.7 3.7-3.7 9.9 0 13.6 3.7 3.7 9.8 3.7 13.6 0z" fill="#F7931E" p-id="8632"></path><path d="M832.7 308.9V342c0 4.5-3.7 8.3-8.3 8.3-4.5 0-8.3-3.7-8.3-8.3v-33.1c0-4.5 3.7-8.3 8.3-8.3 4.6 0 8.3 3.7 8.3 8.3zM790.5 291.4l-23.4 23.4c-3.2 3.2-3.2 8.5 0 11.7 3.2 3.2 8.5 3.2 11.7 0l23.4-23.4c3.2-3.2 3.2-8.5 0-11.7-3.2-3.2-8.5-3.2-11.7 0z" fill="#F4BA64" p-id="8633"></path><path d="M832.7 308.9V342c0 4.5-3.7 8.3-8.3 8.3-4.5 0-8.3-3.7-8.3-8.3v-33.1c0-4.5 3.7-8.3 8.3-8.3 4.6 0 8.3 3.7 8.3 8.3zM790.5 291.4l-23.4 23.4c-3.2 3.2-3.2 8.5 0 11.7 3.2 3.2 8.5 3.2 11.7 0l23.4-23.4c3.2-3.2 3.2-8.5 0-11.7-3.2-3.2-8.5-3.2-11.7 0z" fill="#F4BA64" p-id="8634"></path><path d="M832.7 308.9V342c0 4.5-3.7 8.3-8.3 8.3-4.5 0-8.3-3.7-8.3-8.3v-33.1c0-4.5 3.7-8.3 8.3-8.3 4.6 0 8.3 3.7 8.3 8.3zM790.5 291.4l-23.4 23.4c-3.2 3.2-3.2 8.5 0 11.7 3.2 3.2 8.5 3.2 11.7 0l23.4-23.4c3.2-3.2 3.2-8.5 0-11.7-3.2-3.2-8.5-3.2-11.7 0z" fill="#F4BA64" p-id="8635"></path><path d="M832.7 308.9V342c0 4.5-3.7 8.3-8.3 8.3-4.5 0-8.3-3.7-8.3-8.3v-33.1c0-4.5 3.7-8.3 8.3-8.3 4.6 0 8.3 3.7 8.3 8.3zM790.5 291.4l-23.4 23.4c-3.2 3.2-3.2 8.5 0 11.7 3.2 3.2 8.5 3.2 11.7 0l23.4-23.4c3.2-3.2 3.2-8.5 0-11.7-3.2-3.2-8.5-3.2-11.7 0z" fill="#F4BA64" p-id="8636"></path><path d="M854.7 264.8h33c4.5 0 8.3 3.7 8.3 8.3 0 4.5-3.7 8.3-8.3 8.3h-33c-4.5 0-8.3-3.7-8.3-8.3 0.1-4.6 3.8-8.3 8.3-8.3z" fill="#F7931E" p-id="8637"></path><path d="M788.6 264.8h-33c-4.5 0-8.3 3.7-8.3 8.3 0 4.5 3.7 8.3 8.3 8.3h33c4.5 0 8.3-3.7 8.3-8.3 0-4.6-3.7-8.3-8.3-8.3zM790.5 291.4l-23.4 23.4c-3.2 3.2-3.2 8.5 0 11.7 3.2 3.2 8.5 3.2 11.7 0l23.4-23.4c3.2-3.2 3.2-8.5 0-11.7-3.2-3.2-8.5-3.2-11.7 0zM832.7 308.9V342c0 4.5-3.7 8.3-8.3 8.3-4.5 0-8.3-3.7-8.3-8.3v-33.1c0-4.5 3.7-8.3 8.3-8.3 4.6 0 8.3 3.7 8.3 8.3z" fill="#F4BA64" p-id="8638"></path><path d="M832.7 308.9V342c0 4.5-3.7 8.3-8.3 8.3-4.5 0-8.3-3.7-8.3-8.3v-33.1c0-4.5 3.7-8.3 8.3-8.3 4.6 0 8.3 3.7 8.3 8.3z" fill="#FFDB69" p-id="8639"></path><path d="M832.7 237.3v-33.1c0-4.5-3.7-8.3-8.3-8.3-4.5 0-8.3 3.7-8.3 8.3v33.1c0 4.5 3.7 8.3 8.3 8.3 4.6-0.1 8.3-3.8 8.3-8.3zM843.9 304.2l23.4 23.4c3.2 3.2 8.5 3.2 11.7 0 3.2-3.2 3.2-8.5 0-11.7l-23.4-23.4c-3.2-3.2-8.5-3.2-11.7 0-3.2 3.3-3.2 8.5 0 11.7zM843.9 241.9l23.4-23.4c3.2-3.2 8.5-3.2 11.7 0 3.2 3.2 3.2 8.5 0 11.7l-23.4 23.4c-3.2 3.2-8.5 3.2-11.7 0-3.2-3.2-3.2-8.5 0-11.7z" fill="#F4BA64" p-id="8640"></path><path d="M805 241.9l-23.4-23.4c-3.2-3.2-8.5-3.2-11.7 0-3.2 3.2-3.2 8.5 0 11.7l23.4 23.4c3.2 3.2 8.5 3.2 11.7 0 3.2-3.2 3.2-8.5 0-11.7z" fill="#F7931E" p-id="8641"></path><path d="M237.8 548.4v26.5c0 3.6-3 6.6-6.6 6.6-3.6 0-6.6-3-6.6-6.6v-26.5c0-3.6 3-6.6 6.6-6.6 3.6 0 6.6 2.9 6.6 6.6zM203.9 534.4l-18.7 18.8a6.64 6.64 0 0 0 0 9.4c2.6 2.6 6.8 2.6 9.4 0l18.7-18.8c2.6-2.6 2.6-6.8 0-9.4a6.64 6.64 0 0 0-9.4 0z" fill="#F4BA64" p-id="8642"></path><path d="M237.8 548.4v26.5c0 3.6-3 6.6-6.6 6.6-3.6 0-6.6-3-6.6-6.6v-26.5c0-3.6 3-6.6 6.6-6.6 3.6 0 6.6 2.9 6.6 6.6zM203.9 534.4l-18.7 18.8a6.64 6.64 0 0 0 0 9.4c2.6 2.6 6.8 2.6 9.4 0l18.7-18.8c2.6-2.6 2.6-6.8 0-9.4a6.64 6.64 0 0 0-9.4 0z" fill="#F4BA64" p-id="8643"></path><path d="M237.8 548.4v26.5c0 3.6-3 6.6-6.6 6.6-3.6 0-6.6-3-6.6-6.6v-26.5c0-3.6 3-6.6 6.6-6.6 3.6 0 6.6 2.9 6.6 6.6zM203.9 534.4l-18.7 18.8a6.64 6.64 0 0 0 0 9.4c2.6 2.6 6.8 2.6 9.4 0l18.7-18.8c2.6-2.6 2.6-6.8 0-9.4a6.64 6.64 0 0 0-9.4 0z" fill="#F4BA64" p-id="8644"></path><path d="M237.8 548.4v26.5c0 3.6-3 6.6-6.6 6.6-3.6 0-6.6-3-6.6-6.6v-26.5c0-3.6 3-6.6 6.6-6.6 3.6 0 6.6 2.9 6.6 6.6zM203.9 534.4l-18.7 18.8a6.64 6.64 0 0 0 0 9.4c2.6 2.6 6.8 2.6 9.4 0l18.7-18.8c2.6-2.6 2.6-6.8 0-9.4a6.64 6.64 0 0 0-9.4 0z" fill="#F4BA64" p-id="8645"></path><path d="M255.4 513h26.5c3.6 0 6.6 3 6.6 6.6 0 3.6-3 6.6-6.6 6.6h-26.5c-3.6 0-6.6-3-6.6-6.6 0-3.6 3-6.6 6.6-6.6z" fill="#F7931E" p-id="8646"></path><path d="M202.4 513h-26.5c-3.6 0-6.6 3-6.6 6.6 0 3.6 3 6.6 6.6 6.6h26.5c3.6 0 6.6-3 6.6-6.6 0.1-3.6-2.9-6.6-6.6-6.6z" fill="#FFDB69" p-id="8647"></path><path d="M203.9 534.4l-18.7 18.8a6.64 6.64 0 0 0 0 9.4c2.6 2.6 6.8 2.6 9.4 0l18.7-18.8c2.6-2.6 2.6-6.8 0-9.4a6.64 6.64 0 0 0-9.4 0zM237.8 548.4v26.5c0 3.6-3 6.6-6.6 6.6-3.6 0-6.6-3-6.6-6.6v-26.5c0-3.6 3-6.6 6.6-6.6 3.6 0 6.6 2.9 6.6 6.6z" fill="#F4BA64" p-id="8648"></path><path d="M237.8 548.4v26.5c0 3.6-3 6.6-6.6 6.6-3.6 0-6.6-3-6.6-6.6v-26.5c0-3.6 3-6.6 6.6-6.6 3.6 0 6.6 2.9 6.6 6.6z" fill="#FFDB69" p-id="8649"></path><path d="M237.8 490.9v-26.5c0-3.6-3-6.6-6.6-6.6-3.6 0-6.6 3-6.6 6.6v26.5c0 3.6 3 6.6 6.6 6.6 3.6 0.1 6.6-2.9 6.6-6.6z" fill="#FFDBA2" p-id="8650"></path><path d="M246.8 544.7l18.7 18.8c2.6 2.6 6.8 2.6 9.4 0 2.6-2.6 2.6-6.8 0-9.4l-18.7-18.8a6.64 6.64 0 0 0-9.4 0 6.64 6.64 0 0 0 0 9.4z" fill="#FFECB6" p-id="8651"></path><path d="M246.8 494.7l18.7-18.8c2.6-2.6 6.8-2.6 9.4 0 2.6 2.6 2.6 6.8 0 9.4L256.1 504a6.64 6.64 0 0 1-9.4 0c-2.5-2.6-2.5-6.8 0.1-9.3z" fill="#F4BA64" p-id="8652"></path><path d="M215.5 494.7l-18.7-18.8a6.64 6.64 0 0 0-9.4 0 6.64 6.64 0 0 0 0 9.4l18.7 18.8c2.6 2.6 6.8 2.6 9.4 0 2.6-2.7 2.6-6.9 0-9.4z" fill="#FFECB6" p-id="8653"></path></svg>