<svg t="1656237654579" class="icon" viewBox="0 0 1024 1024" version="1.1" xmlns="http://www.w3.org/2000/svg" p-id="7611" width="200" height="200"><path d="M679.91024451 685.43360694h31.81457257v157.52632196H679.91024451z" fill="#FF9060" p-id="7612"></path><path d="M711.72481708 848.0414227H679.91024451c-2.87214934 0-5.30242877-2.43027941-5.30242876-5.30242876v-157.52632067c0-2.87214934 2.43027941-5.30242877 5.30242876-5.30242876h31.81457257c2.87214934 0 5.30242877 2.43027941 5.30242877 5.30242876v157.52632067c0 3.09308301-2.43027941 5.30242877-5.30242877 5.30242876z m-26.51214381-10.60485753h21.20971505v-146.92146313h-21.20971505v146.92146313z" fill="#222222" p-id="7613"></path><path d="M679.91024451 427.60300847h31.81457257v98.53680199H679.91024451z" fill="#FFDE52" p-id="7614"></path><path d="M711.72481708 531.6631729H679.91024451c-2.87214934 0-5.30242877-2.43027941-5.30242876-5.30242877v-98.5368007c0-2.87214934 2.43027941-5.30242877 5.30242876-5.30242876h31.81457257c2.87214934 0 5.30242877 2.43027941 5.30242877 5.30242876v98.5368007c0 2.87214934-2.43027941 5.30242877-5.30242877 5.30242877z m-26.51214381-10.60485753h21.20971505v-87.93194319h-21.20971505v87.93194319z" fill="#222222" p-id="7615"></path><path d="M692.7244465 527.90728628h19.00037058v157.52632066h-19.00037058z" fill="#FFFFFF" p-id="7616"></path><path d="M711.72481708 690.7360357h-19.00037058c-2.87214934 0-5.30242877-2.43027941-5.30242877-5.30242876v-157.52632066c0-2.87214934 2.43027941-5.30242877 5.30242877-5.30242877h19.00037058c2.87214934 0 5.30242877 2.43027941 5.30242877 5.30242877v157.52632066c0 2.87214934-2.43027941 5.30242877-5.30242877 5.30242876z m-13.69794183-10.60485751h8.39551307v-146.92146315h-8.39551307v146.92146315z" fill="#222222" p-id="7617"></path><path d="M675.04968438 437.76599735h-22.31438726c-2.87214934 0-5.30242877-2.43027941-5.30242877-5.30242876s2.43027941-5.30242877 5.30242877-5.30242876h22.31438726c2.87214934 0 5.30242877 2.43027941 5.30242877 5.30242876s-2.20934575 5.30242877-5.30242877 5.30242876zM675.04968438 455.44075946h-22.31438726c-2.87214934 0-5.30242877-2.43027941-5.30242877-5.30242877s2.43027941-5.30242877 5.30242877-5.30242876h22.31438726c2.87214934 0 5.30242877 2.43027941 5.30242877 5.30242876s-2.20934575 5.30242877-5.30242877 5.30242877zM675.04968438 473.33645652h-22.31438726c-2.87214934 0-5.30242877-2.43027941-5.30242877-5.30242877s2.43027941-5.30242877 5.30242877-5.30242875h22.31438726c2.87214934 0 5.30242877 2.43027941 5.30242877 5.30242875s-2.20934575 5.30242877-5.30242877 5.30242877zM675.04968438 491.23215359h-22.31438726c-2.87214934 0-5.30242877-2.43027941-5.30242877-5.30242877s2.43027941-5.30242877 5.30242877-5.30242876h22.31438726c2.87214934 0 5.30242877 2.43027941 5.30242877 5.30242876s-2.20934575 5.30242877-5.30242877 5.30242877zM675.04968438 508.90691699h-22.31438726c-2.87214934 0-5.30242877-2.43027941-5.30242877-5.30242877s2.43027941-5.30242877 5.30242877-5.30242875h22.31438726c2.87214934 0 5.30242877 2.43027941 5.30242877 5.30242875s-2.20934575 5.30242877-5.30242877 5.30242877zM675.04968438 526.80261406h-22.31438726c-2.87214934 0-5.30242877-2.43027941-5.30242877-5.30242877s2.43027941-5.30242877 5.30242877-5.30242876h22.31438726c2.87214934 0 5.30242877 2.43027941 5.30242877 5.30242876s-2.20934575 5.30242877-5.30242877 5.30242877z" fill="#222222" p-id="7618"></path><path d="M760.99321678 508.90691699h123.94427228v18.3375657h-123.94427228z" fill="#FFFFFF" p-id="7619"></path><path d="M884.93748906 532.54691145h-123.94427228c-2.87214934 0-5.30242877-2.43027941-5.30242876-5.30242876v-18.3375657c0-2.87214934 2.43027941-5.30242877 5.30242876-5.30242877h123.94427228c2.87214934 0 5.30242877 2.43027941 5.30242875 5.30242877v18.3375657c0 2.87214934-2.43027941 5.30242877-5.30242875 5.30242876z m-118.64184352-10.60485753h113.33941475V514.20934575h-113.33941475v7.73270817z" fill="#222222" p-id="7620"></path><path d="M863.28590539 777.56330666h-80.42016998l-17.45382713-252.08629979h115.32782553z" fill="#FF9060" p-id="7621"></path><path d="M863.28590539 782.86573541h-80.42016998c-2.87214934 0-5.0814938-2.20934575-5.30242875-4.86055882l-17.45382714-252.30723606c0-1.54654215 0.44186863-2.87214934 1.32560718-3.97682158 1.10467223-1.10467223 2.43027941-1.76747583 3.97682158-1.7674758h115.32782553c1.54654215 0 2.87214934 0.66280359 3.97682158 1.7674758s1.54654215 2.43027941 1.32560718 3.97682158l-17.45382844 252.30723606c-0.22093497 2.87214934-2.65121438 4.86056012-5.30242874 4.86055882z m-75.55960984-10.60485752h70.47811603l16.57008987-241.70237723h-103.83923074l16.79102484 241.70237723z" fill="#222222" p-id="7622"></path><path d="M839.8668446 803.63358183h-33.80298335l-13.47700558-26.07027517h60.7569958z" fill="#FFFFFF" p-id="7623"></path><path d="M839.8668446 808.93601058h-33.80298335c-1.98841078 0-3.7558866-1.10467223-4.63962518-2.87214933l-13.47700555-26.07027388c-0.88373856-1.54654215-0.88373856-3.53495294 0.22093366-5.08149509 0.88373856-1.54654215 2.65121438-2.65121438 4.41869149-2.65121439h60.97793075c1.76747583 0 3.53495294 0.88373856 4.4186902 2.65121439 0.88373856 1.54654215 1.10467223 3.53495294 0.22093496 5.08149509l-13.47700687 26.07027388c-1.10467223 1.76747583-2.87214934 2.87214934-4.86056011 2.87214933z m-30.48896538-10.38392255H836.77376158l7.95364313-15.46541765h-43.5241023l8.17457681 15.46541765z" fill="#222222" p-id="7624"></path><path d="M837.8784338 842.73899394h-29.60522681l-6.40710098-39.10541211h42.41943008z" fill="#FFDE52" p-id="7625"></path><path d="M837.8784338 848.0414227h-29.60522681c-2.65121438 0-4.86056012-1.98841078-5.30242876-4.41869021l-6.40710099-39.10541211c-0.22093497-1.54654215 0.22093497-3.09308301 1.10467223-4.19775653 1.10467223-1.10467223 2.43027941-1.76747583 3.97682157-1.76747582h42.41943008c1.54654215 0 3.09308301 0.66280359 3.97682158 1.76747582 1.10467223 1.10467223 1.54654215 2.65121438 1.10467222 4.19775653l-6.40710098 39.10541211c-0.22093497 2.65121438-2.43027941 4.4186902-4.86056014 4.41869021z m-25.18653661-10.60485753h20.54691145l4.63962516-28.50055459H808.05227202l4.63962517 28.50055459z" fill="#222222" p-id="7626"></path><path d="M188.2425377 804.40243399h-147.8052017v-193.75958471h147.8052017z" fill="#FFFFFF" p-id="7627"></path><path d="M188.33091065 809.81974915H40.52570895c-2.87214934 0-5.30242877-2.43027941-5.30242877-5.30242877v-193.75958472c0-2.87214934 2.43027941-5.30242877 5.30242877-5.30242876h147.8052017c2.87214934 0 5.30242877 2.43027941 5.30242875 5.30242876v193.75958472c0 2.87214934-2.43027941 5.30242877-5.30242875 5.30242877zM45.82813771 799.21489163h137.20034418v-183.1547272H45.82813771V799.21489163z" fill="#222222" p-id="7628"></path><path d="M81.1776632 660.02613665h199.50388213v140.9562308h-0.22093496c0 0.66280359 0.22093497 1.10467223 0.22093496 1.76747581 0 20.32597648-44.62877583 36.89606637-99.8624079 36.89606766s-99.86240788-16.57008987-99.86240918-36.89606766c0-0.66280359 0-1.10467223 0.22093495-1.76747581V660.02613665z" fill="#FFFFFF" p-id="7629"></path><path d="M180.81913743 844.94833968c-27.17494739 0-53.02428761-3.97682157-72.46652682-11.26766111-20.98878007-7.73270818-32.69831113-18.77943563-32.69831112-31.15176897v-1.10467353-141.39809942c0-2.87214934 2.43027941-5.30242877 5.30242876-5.30242875h199.50388212c2.87214934 0 5.30242877 2.43027941 5.30242874 5.30242875v142.72370661c0 12.15139967-11.70952975 23.41906079-32.69830982 31.15176897-19.22130427 7.06990459-44.8497095 11.04672615-72.24559186 11.04672745z m-94.33904546-45.07064446c0.22093497 0.44186863 0.22093497 1.10467223 0 1.76747582v1.10467222c0 15.02354772 38.88447714 31.81457257 94.55997913 31.81457257 55.67550198 0 94.55997914-16.79102483 94.55998043-31.81457257v-1.10467222V665.32856542h-188.8990246v134.5491298z" fill="#222222" p-id="7630"></path><path d="M102.60831322 679.46837458h156.42164843v111.7928739c0 16.12822124-35.12859054 28.94242322-78.21082422 28.94242322s-78.21082421-13.03513695-78.21082421-28.94242322v-111.7928739z" fill="#FFF4C7" p-id="7631"></path><path d="M80.95672825 654.7237079a99.86240788 43.96597225 0 1 0 199.72481708 0 99.86240788 43.96597225 0 1 0-199.72481708 0Z" fill="#FF9060" p-id="7632"></path><path d="M180.81913743 703.99210762c-58.98951997 0-104.94390299-21.65158367-104.94390298-49.26839972s46.17531668-49.268401 104.94390298-49.268401c58.98951997 0 104.94390299 21.65158367 104.94390168 49.268401s-45.95438302 49.268401-104.94390168 49.26839972z m0-87.93194319c-56.55924054 0-94.55997914 20.10504282-94.55998043 38.66354347s38.00073988 38.66354348 94.55998043 38.66354218c56.55924054 0 94.55997914-20.10504282 94.55997914-38.66354218s-38.00073988-38.66354348-94.55997914-38.66354347z" fill="#222222" p-id="7633"></path><path d="M161.81876685 654.7237079a19.0003693 9.50018529 0 1 0 38.00073987 0 19.0003693 9.50018529 0 1 0-38.00073987 0Z" fill="#222222" p-id="7634"></path><path d="M230.9712757 693.38725008v140.51436215" fill="#FFFFFF" p-id="7635"></path><path d="M230.9712757 711.94575074c-2.87214934 0-5.30242877-2.43027941-5.30242877-5.30242876v-13.2560719c0-2.87214934 2.43027941-5.30242877 5.30242877-5.30242876s5.30242877 2.43027941 5.30242875 5.30242876v13.2560719c0 2.87214934-2.43027941 5.30242877-5.30242875 5.30242876zM230.9712757 803.19171318c-2.87214934 0-5.30242877-2.43027941-5.30242877-5.30242874v-22.75625721c0-2.87214934 2.43027941-5.30242877 5.30242877-5.30242874s5.30242877 2.43027941 5.30242875 5.30242874v22.75625721c0 2.87214934-2.43027941 5.30242877-5.30242875 5.30242874z m0-45.73344805c-2.87214934 0-5.30242877-2.43027941-5.30242877-5.30242875v-22.7562572c0-2.87214934 2.43027941-5.30242877 5.30242877-5.30242876s5.30242877 2.43027941 5.30242875 5.30242876v22.7562572c0 3.09308301-2.43027941 5.30242877-5.30242875 5.30242875zM230.9712757 839.204041c-2.87214934 0-5.30242877-2.43027941-5.30242877-5.30242877v-13.2560719c0-2.87214934 2.43027941-5.30242877 5.30242877-5.30242876s5.30242877 2.43027941 5.30242875 5.30242876v13.2560719c0 3.09308301-2.43027941 5.30242877-5.30242875 5.30242877z" fill="#222222" p-id="7636"></path><path d="M577.83849087 844.94833968h-214.08556121c-21.65158367 0-39.54728074-17.6747621-39.54728202-39.54728203V476.87140946v-0.22093496c6.18616732-116.65343273 60.31512715-152.2238919 62.52447289-153.54949909 0.88373856-0.44186863 1.76747583-0.88373856 2.87214935-0.88373856H551.7682157c1.10467223 0 1.98841078 0.22093497 2.87214935 0.88373856 2.20934575 1.54654215 56.55924054 36.89606637 62.5244716 153.54949909V805.40105765c0.22093497 21.87251863-17.6747621 39.54728074-39.32634578 39.54728203z m-243.02798571-367.85599525v328.52964819c0 15.90728628 13.03513695 28.94242322 28.9424245 28.94242321h214.08556121c15.90728628 0 28.94242322-13.03513695 28.94242323-28.94242321V477.09234443c-3.09308301-57.88484773-18.55850066-94.1181105-31.15176898-114.66502194-11.04672615-18.11663203-21.87251863-27.17494739-25.40747157-29.60522812h-158.85192785c-3.53495294 2.65121438-14.13981046 11.48859609-25.40747158 29.60522812-12.5932683 20.54691145-28.05868595 56.78017421-31.15176896 114.66502194z" fill="#222222" p-id="7637"></path><path d="M533.20971504 366.40414405h-124.82801084s-41.53569153 29.16335819-46.17531668 127.47922392v280.36592071c0 16.12822124 11.70952975 29.16335819 26.29120884 29.16335819h164.59622654c14.58167909 0 26.29120884-13.03513695 26.29120883-29.16335819V493.88336797c-4.63962516-98.31586703-46.17531668-127.47922522-46.17531669-127.47922392z" fill="#FFF4C7" p-id="7638"></path><path d="M601.25755037 414.12600289h-260.70274652c-2.87214934 0-5.30242877-2.43027941-5.30242877-5.30242876s2.43027941-5.30242877 5.30242877-5.30242876h260.70274652c2.87214934 0 5.30242877 2.43027941 5.30242877 5.30242876s-2.43027941 5.30242877-5.30242877 5.30242876z" fill="#222222" p-id="7639"></path><path d="M458.09197383 214.40118581h25.62840655v98.09493208h-25.62840655z" fill="#FFFFFF" p-id="7640"></path><path d="M483.49944542 317.79854665h-25.62840525c-2.87214934 0-5.30242877-2.43027941-5.30242877-5.30242876v-98.09493208c0-2.87214934 2.43027941-5.30242877 5.30242877-5.30242874h25.62840525c2.87214934 0 5.30242877 2.43027941 5.30242875 5.30242874v98.09493208c0 3.09308301-2.20934575 5.30242877-5.30242875 5.30242876z m-20.3259765-10.60485753h15.02354773v-87.49007454h-15.02354773v87.49007454z" fill="#222222" p-id="7641"></path><path d="M317.57761168 324.64751756s-75.11774121 45.73344805-70.47811474 83.95512161c5.52336372 47.27999022 74.67587127-14.80261406 70.47811474-83.95512161z" fill="#FFFFFF" p-id="7642"></path><path d="M260.35556883 430.47515781c-14.80261406 0-17.89569707-16.12822124-18.55850066-21.20971505-4.86056012-41.0938229 69.81531244-87.26913958 73.12932913-89.03661669 1.54654215-0.88373856 3.53495294-1.10467223 5.30242877-0.22093369 1.54654215 0.88373856 2.65121438 2.43027941 2.87214934 4.41869021 1.98841078 32.47737616-11.26766112 58.98951997-19.22130426 71.80372323-12.5932683 19.88410785-28.27961962 33.14017975-41.09382288 34.24485199h-2.43027944z m51.91961409-96.10652128c-23.19812583 15.68635132-63.18727649 48.38466243-60.09419218 73.79213401 1.54654215 12.5932683 7.29083955 11.93046471 9.05831536 11.93046471 17.45382844-1.76747583 49.48933467-41.31475786 51.03587682-85.72259872z" fill="#222222" p-id="7643"></path><path d="M432.24263362 219.04081099h76.88521704v29.16335817h-76.88521704z" fill="#FFFFFF" p-id="7644"></path><path d="M509.12785066 253.28566295h-76.88521704c-2.87214934 0-5.30242877-2.43027941-5.30242876-5.30242875v-29.16335818c0-2.87214934 2.43027941-5.30242877 5.30242876-5.30242876h76.88521704c2.87214934 0 5.30242877 2.43027941 5.30242875 5.30242876v29.16335818c0 2.87214934-2.20934575 5.30242877-5.30242875 5.30242875z m-71.58278827-10.60485751h66.2803595v-18.55850066h-66.2803595v18.55850066z" fill="#222222" p-id="7645"></path><path d="M422.9633833 228.09912635s-51.25681179 0-51.25681049 29.82616178c0 0-4.19775653-76.88521703 51.25681049-76.88521703H529.6747621v46.83812158h-106.7113788" fill="#FFDE52" p-id="7646"></path><path d="M371.70657281 263.2277169c-2.87214934 0-5.0814938-2.20934575-5.30242876-5.08149381 0-1.76747583-2.20934575-43.96597225 19.88410785-67.38503173 9.50018529-9.94205392 21.65158367-15.02354772 36.45419773-15.02354902H529.6747621c2.87214934 0 5.30242877 2.43027941 5.30242877 5.30242876v46.83812158c0 2.87214934-2.43027941 5.30242877-5.30242877 5.30242877h-106.7113788c-0.66280359 0-45.95438302 0.44186863-45.95438172 24.52373301 0 3.09308301-2.20934575 5.52336372-5.30242877 5.52336244 0.22093497 0 0.22093497 0 0 0z m51.25681049-76.66428207c-11.93046471 0-21.43065001 3.7558866-28.94242321 11.70952975-9.50018529 9.94205392-13.69794053 24.52373301-15.68635133 36.89606764 4.19775653-3.09308301 9.94205392-5.96523235 17.45382714-8.17457809 13.47700687-3.97682157 26.51214381-3.97682157 27.1749474-3.97682158h101.40895004v-36.45419772h-101.40895004z" fill="#222222" p-id="7647"></path><path d="M392.69535289 289.07705709h156.20071348v38.44260852H392.69535289z" fill="#FF9060" p-id="7648"></path><path d="M548.89606637 332.82209437H392.69535289c-2.87214934 0-5.30242877-2.43027941-5.30242876-5.30242876v-38.44260852c0-2.87214934 2.43027941-5.30242877 5.30242876-5.30242876h156.20071348c2.87214934 0 5.30242877 2.43027941 5.30242874 5.30242876v38.44260852c0 2.87214934-2.43027941 5.30242877-5.30242874 5.30242876z m-150.89828472-10.60485752h145.59585595v-27.83775099h-145.59585595v27.83775099z" fill="#222222" p-id="7649"></path><path d="M433.34730715 502.49981471h85.9435324v241.70237853h-85.9435324z" fill="#FFDE52" p-id="7650"></path><path d="M519.29083955 749.50462198h-85.9435324c-2.87214934 0-5.30242877-2.43027941-5.30242876-5.30242874V502.49981471c0-2.87214934 2.43027941-5.30242877 5.30242876-5.30242877h85.9435324c2.87214934 0 5.30242877 2.43027941 5.30242875 5.30242877v241.70237853c0 3.09308301-2.43027941 5.30242877-5.30242875 5.30242874z m-80.64110365-10.60485751h75.33867488V507.80224347h-75.33867488v231.097521z" fill="#222222" p-id="7651"></path><path d="M901.28664527 438.42880095s62.08260298 13.03513695 78.43175788-9.27925034c20.32597648-27.83775099-46.61718661-29.16335819-78.43175788 9.27925034z" fill="#FFFFFF" p-id="7652"></path><path d="M938.40364659 447.48711632h-4.19775654c-17.89569707-0.44186863-33.36111472-3.7558866-34.02391831-3.75588661-1.76747583-0.44186863-3.31401797-1.76747583-3.97682156-3.53495294-0.66280359-1.76747583-0.22093497-3.7558866 0.88373855-5.0814938 25.62840525-30.70990033 71.14091964-38.00073988 86.16446736-26.07027517 2.65121438 1.98841078 10.60485751 9.94205392 0.66280359 23.19812582-7.29083955 9.94205392-22.75625718 15.24448269-45.51251309 15.2444827z m-26.51214381-12.59326831c20.10504282 2.87214934 53.6870912 4.63962516 63.62914512-9.05831537 4.63962516-6.18616732 2.20934575-7.95364315 1.3256072-8.61644674-8.17457811-6.40710098-41.75662649-3.7558866-64.95475232 17.67476211z" fill="#222222" p-id="7653"></path><path d="M873.8907629 426.05646761s45.73344805-75.11774121 24.08186439-106.93231378c-26.51214381-39.32634707-59.65232355 47.50092388-24.08186439 106.93231378z" fill="#FFFFFF" p-id="7654"></path><path d="M873.8907629 431.35889636c-1.98841078 0-3.53495294-0.88373856-4.63962516-2.65121438-16.79102483-28.05868595-17.01195851-57.66391277-15.68635132-72.68746178 1.98841078-23.41906079 9.94205392-42.41943008 20.98878008-49.26839971 14.13981046-8.8373817 24.96560165 4.86056012 28.05868596 9.27925034 23.19812583 34.24485198-22.0934536 109.58352815-24.08186439 112.67661115-1.10467223 1.76747583-2.87214934 2.65121438-4.63962517 2.65121438z m9.94205393-116.87436769c-1.76747583 0-3.09308301 0.88373856-3.75588661 1.32560719-14.58167909 9.27925033-24.96560165 58.98951997-5.96523235 99.42053925 13.47700687-24.52373301 33.80298335-72.0246569 19.66317288-93.01343826-4.19775653-6.18616732-7.51177452-7.73270818-9.94205392-7.73270818z" fill="#222222" p-id="7655"></path></svg>